<svg width="31" height="31" viewBox="0 0 31 31" fill="none" xmlns="http://www.w3.org/2000/svg">
<path d="M20.6667 20.6666C23.5201 20.6666 25.8333 18.3534 25.8333 15.4999C25.8333 12.6464 23.5201 10.3333 20.6667 10.3333C17.8132 10.3333 15.5 12.6464 15.5 15.4999C15.5 18.3534 17.8132 20.6666 20.6667 20.6666Z" fill="#19BCFE"/>
<path fill-rule="evenodd" clip-rule="evenodd" d="M10.3333 31.0001C13.1868 31.0001 15.5 28.6869 15.5 25.8334C15.5 25.0545 15.5 23.3322 15.5 20.6667C13.1789 20.6667 11.4567 20.6667 10.3333 20.6667C7.47987 20.6667 5.16667 22.9799 5.16667 25.8334C5.16667 28.6869 7.47987 31.0001 10.3333 31.0001Z" fill="#09CF83"/>
<path fill-rule="evenodd" clip-rule="evenodd" d="M10.3333 20.6666H15.5V10.3333C13.0067 10.3333 11.2845 10.3333 10.3333 10.3333C7.47987 10.3333 5.16667 12.6464 5.16667 15.4999C5.16667 18.3534 7.47987 20.6666 10.3333 20.6666Z" fill="#A259FF"/>
<path fill-rule="evenodd" clip-rule="evenodd" d="M10.3333 10.3333H15.5V0C13.0067 0 11.2845 0 10.3333 0C7.47987 0 5.16667 2.3132 5.16667 5.16667C5.16667 8.02014 7.47987 10.3333 10.3333 10.3333Z" fill="#F24E1E"/>
<path fill-rule="evenodd" clip-rule="evenodd" d="M20.6667 10.3333H15.5V0H20.6667C23.5201 0 25.8333 2.3132 25.8333 5.16667C25.8333 8.02014 23.5201 10.3333 20.6667 10.3333Z" fill="#FF7262"/>
</svg>
