<svg width="29" height="29" viewBox="0 0 29 29" fill="none" xmlns="http://www.w3.org/2000/svg">
<g clip-path="url(#clip0_108_294)">
<path d="M0 0H29V29H0V0Z" fill="#F7DF1E"/>
<path d="M7.62515 24.2344L9.84444 22.8914C10.2726 23.6505 10.6621 24.2928 11.5963 24.2928C12.4918 24.2928 13.0563 23.9425 13.0563 22.5799V13.3137H15.7816V22.6184C15.7816 25.4411 14.127 26.7259 11.7131 26.7259C9.53298 26.7259 8.26748 25.5968 7.62511 24.2342" fill="black"/>
<path d="M17.2619 23.9425L19.4809 22.6577C20.0651 23.6116 20.8243 24.3124 22.1674 24.3124C23.2966 24.3124 24.0166 23.7478 24.0166 22.9691C24.0166 22.0347 23.277 21.7038 22.0311 21.1589L21.3499 20.8667C19.3837 20.0298 18.0794 18.9786 18.0794 16.7593C18.0794 14.7154 19.6367 13.158 22.0701 13.158C23.8026 13.158 25.0485 13.7615 25.9439 15.3383L23.822 16.7009C23.3548 15.8639 22.8488 15.533 22.0701 15.533C21.272 15.533 20.7658 16.0391 20.7658 16.7009C20.7658 17.5185 21.272 17.8495 22.4399 18.3557L23.1211 18.6477C25.4377 19.6405 26.742 20.6527 26.742 22.9302C26.742 25.3831 24.8148 26.7262 22.2258 26.7262C19.6952 26.7262 18.0599 25.5193 17.2619 23.9425Z" fill="black"/>
</g>
<defs>
<clipPath id="clip0_108_294">
<rect width="29" height="29" fill="white"/>
</clipPath>
</defs>
</svg>
