<svg width="38" height="38" viewBox="0 0 38 38" fill="none" xmlns="http://www.w3.org/2000/svg">
<path fill-rule="evenodd" clip-rule="evenodd" d="M26.1363 12.71C26.6127 14.0884 26.9559 15.4955 27.0687 16.9541C27.2089 18.7635 27.1447 20.5602 26.7633 22.34C26.7529 22.389 26.7309 22.435 26.7146 22.4825C26.5949 22.4828 26.4729 22.4679 26.3559 22.4861C25.3677 22.6413 24.3802 22.8022 23.3928 22.9622C22.3722 23.1276 21.35 23.2864 20.3312 23.4631C19.9702 23.5254 19.5234 23.4509 19.3776 23.9502C19.3734 23.9639 19.3319 23.9663 19.3078 23.974L19.3571 20.9901C19.3402 18.5902 19.3236 16.1902 19.3069 13.7903L19.7825 13.7086C20.5604 13.5813 21.3382 13.4521 22.1166 13.3284C23.0455 13.1808 23.9753 13.0374 24.9048 12.8934C25.3148 12.8296 25.7254 12.7711 26.1363 12.71Z" fill="#439934"/>
<path fill-rule="evenodd" clip-rule="evenodd" d="M18.3258 32.6725C17.8241 32.2411 17.3048 31.8287 16.8239 31.3751C14.236 28.9342 12.3432 26.0614 11.411 22.5977C11.1542 21.6444 10.9829 20.6757 10.928 19.6907C10.8894 19.0014 10.8336 18.3058 10.8822 17.62C11.012 15.796 11.2756 13.9895 11.8106 12.2326L11.84 12.1917C11.8919 12.2608 11.9667 12.322 11.9931 12.4001C12.5154 13.9379 13.0337 15.4769 13.5494 17.0168C15.1697 21.8558 16.788 26.6961 18.411 31.5339C18.4428 31.6284 18.525 31.7058 18.5841 31.791L18.3258 32.6725Z" fill="#45A538"/>
<path fill-rule="evenodd" clip-rule="evenodd" d="M26.1363 12.7098C25.7254 12.771 25.3145 12.8295 24.9045 12.8927C23.975 13.0367 23.0452 13.1801 22.1163 13.3276C21.3379 13.4514 20.5601 13.5806 19.7823 13.7079L19.3067 13.7896L19.3031 13.4793C19.2874 13.2243 19.2603 12.9696 19.2574 12.7146C19.2369 11.0883 19.2241 9.46202 19.2039 7.83574C19.1915 6.81776 19.1728 5.80007 19.152 4.78238C19.1392 4.15004 19.1256 3.5174 19.0971 2.88595C19.0816 2.54662 19.027 2.20907 19.0047 1.86974C18.9923 1.6747 19.0095 1.47816 19.0133 1.28223C19.2559 1.75218 19.4931 2.2257 19.7425 2.69209C20.1364 3.42952 20.764 3.9728 21.329 4.56566C23.5624 6.9086 25.148 9.63273 26.1363 12.7098Z" fill="#46A037"/>
<path fill-rule="evenodd" clip-rule="evenodd" d="M19.3076 23.9736C19.3316 23.9659 19.3735 23.9635 19.3773 23.9499C19.5231 23.4505 19.9699 23.5251 20.3309 23.4627C21.3498 23.2864 22.3719 23.1272 23.3926 22.9619C24.38 22.8019 25.3674 22.641 26.3557 22.4857C26.4726 22.4673 26.5946 22.4824 26.7143 22.4821C26.5296 23.1412 26.3842 23.8145 26.1499 24.4555C25.8839 25.1825 25.5621 25.892 25.2204 26.5876C24.7098 27.6276 24.0736 28.5975 23.3344 29.486C22.7647 30.1712 22.1296 30.8044 21.4931 31.43C21.1413 31.7758 20.7266 32.0575 20.3407 32.3684L20.2406 32.3001L19.8802 31.9919L19.5073 31.1746C19.2506 30.2178 19.1158 29.2438 19.0935 28.254L19.1003 28.0874L19.1511 27.3672C19.168 27.1214 19.1906 26.8759 19.201 26.6295C19.2393 25.7442 19.2725 24.8589 19.3076 23.9736Z" fill="#409433"/>
<path fill-rule="evenodd" clip-rule="evenodd" d="M19.3076 23.9737C19.2725 24.859 19.2393 25.7443 19.2016 26.6298C19.1912 26.8762 19.1686 27.1218 19.1517 27.3676L18.9246 27.4534C18.4202 25.9684 17.9155 24.4992 17.4218 23.0261C16.6054 20.589 15.7988 18.1481 14.9836 15.7105C14.3254 13.7428 13.6619 11.7772 12.9945 9.81246C12.9633 9.72043 12.8737 9.64859 12.8113 9.56724L14.2648 6.89478C14.3147 6.98146 14.3806 7.06251 14.4121 7.15573C15.0845 9.14568 15.7557 11.1359 16.4213 13.1283C17.287 15.72 18.1474 18.3138 19.0125 20.9058C19.0469 21.0094 19.1039 21.105 19.1582 21.2211L19.3571 20.9895C19.3405 21.9843 19.3239 22.9789 19.3076 23.9737Z" fill="#4FAA41"/>
<path fill-rule="evenodd" clip-rule="evenodd" d="M12.8116 9.56738C12.874 9.64873 12.9633 9.72057 12.9948 9.8126C13.6622 11.7773 14.3257 13.7429 14.9839 15.7106C15.7991 18.1483 16.6057 20.5892 17.4221 23.0262C17.9155 24.499 18.4202 25.9685 18.9249 27.4535L19.152 27.3677L19.1012 28.0879L19.0552 28.2539C18.9763 29.0424 18.9098 29.8327 18.8136 30.6194C18.7652 31.0136 18.6625 31.4008 18.5844 31.7911C18.5256 31.7059 18.4431 31.6285 18.4113 31.5341C16.7883 26.6959 15.17 21.8559 13.5497 17.0169C13.034 15.477 12.5157 13.938 11.9935 12.4002C11.967 12.3221 11.8925 12.2609 11.8403 12.1918C12.1639 11.3169 12.4878 10.442 12.8116 9.56738Z" fill="#4AA73C"/>
<path fill-rule="evenodd" clip-rule="evenodd" d="M19.3568 20.9899L19.1579 21.2214C19.1036 21.1053 19.0466 21.0095 19.0122 20.9061C18.1474 18.3141 17.2867 15.7203 16.421 13.1286C15.7554 11.1363 15.0842 9.14603 14.4118 7.15608C14.3806 7.06286 14.3147 6.98152 14.2645 6.89513L16.0621 4.53052C16.1188 4.60622 16.1996 4.67361 16.2289 4.75881C16.728 6.21974 17.2226 7.68244 17.7142 9.14603C18.1735 10.5128 18.6259 11.8817 19.0905 13.2468C19.1217 13.3382 19.2301 13.4029 19.3025 13.4801L19.3061 13.7903C19.3233 16.1897 19.3402 18.5899 19.3568 20.9899Z" fill="#57AE47"/>
<path fill-rule="evenodd" clip-rule="evenodd" d="M19.3031 13.4794C19.2307 13.4022 19.1223 13.3375 19.0911 13.2461C18.6265 11.881 18.1741 10.5121 17.7148 9.14533C17.2232 7.68174 16.7286 6.21933 16.2296 4.75812C16.2002 4.67291 16.1194 4.60552 16.0627 4.52982C16.6473 3.95744 17.2137 3.36458 17.8217 2.81863C18.3623 2.33354 18.7969 1.81341 18.8168 1.04688C18.8177 1.01512 18.8343 0.98335 18.8599 0.894287L19.0139 1.28201C19.0101 1.47824 18.9926 1.67447 19.0053 1.86952C19.0276 2.20885 19.0822 2.5464 19.0977 2.88572C19.1262 3.51718 19.1398 4.14982 19.1526 4.78216C19.1731 5.79985 19.1918 6.81754 19.2045 7.83552C19.2244 9.4618 19.2375 11.0881 19.258 12.7144C19.2604 12.97 19.2871 13.2244 19.3031 13.4794Z" fill="#60B24F"/>
<path fill-rule="evenodd" clip-rule="evenodd" d="M18.5838 31.791C18.6619 31.4006 18.7646 31.0132 18.813 30.6192C18.9095 29.8328 18.9757 29.0422 19.0546 28.2537L19.0742 28.2507L19.0938 28.254C19.1161 29.2438 19.2509 30.2178 19.5077 31.1747C19.4554 31.2435 19.3815 31.305 19.3539 31.3828C19.138 31.9914 18.9347 32.6047 18.7177 33.2133C18.688 33.2964 18.6055 33.3611 18.5473 33.4342L18.3255 32.6724L18.5838 31.791Z" fill="#A9AA88"/>
<path fill-rule="evenodd" clip-rule="evenodd" d="M18.5475 33.4346C18.6057 33.3615 18.6886 33.2968 18.718 33.2137C18.935 32.6051 19.1386 31.992 19.3542 31.3832C19.3818 31.3054 19.4554 31.2439 19.5079 31.175L19.8805 31.9926C19.8069 32.0971 19.7054 32.1913 19.6644 32.3076L18.9507 34.4033C18.9213 34.4873 18.821 34.5467 18.7539 34.6176L18.5475 33.4346Z" fill="#B6B598"/>
<path fill-rule="evenodd" clip-rule="evenodd" d="M18.7539 34.6172C18.8213 34.5465 18.9213 34.4868 18.9507 34.4028L19.6644 32.3072C19.7051 32.1911 19.8069 32.0967 19.8805 31.9922L20.2412 32.3C20.067 32.4722 19.9702 32.6711 20.0284 32.9226L19.9188 33.2812C19.8689 33.3427 19.7968 33.3961 19.7722 33.4665C19.5231 34.1799 19.2853 34.8971 19.0344 35.6105C19.0027 35.701 18.9145 35.772 18.8521 35.8516C18.8198 35.4398 18.7868 35.0289 18.7539 34.6172Z" fill="#C2C1A7"/>
<path fill-rule="evenodd" clip-rule="evenodd" d="M18.8524 35.8516C18.9145 35.7717 19.0027 35.7008 19.0347 35.6105C19.2856 34.8974 19.5234 34.1802 19.7725 33.4665C19.7971 33.3964 19.8689 33.3427 19.9191 33.2812L19.768 34.9274C19.7276 34.974 19.6692 35.0147 19.6499 35.069C19.4792 35.5482 19.3182 36.0309 19.1469 36.5101C19.1116 36.6089 19.0439 36.6962 18.9911 36.7885C18.9442 36.7271 18.8602 36.6677 18.8563 36.6036C18.8412 36.3539 18.8516 36.1025 18.8524 35.8516Z" fill="#CECDB7"/>
<path fill-rule="evenodd" clip-rule="evenodd" d="M18.9908 36.7886C19.0436 36.696 19.1113 36.6087 19.1466 36.5101C19.3182 36.0313 19.4788 35.5486 19.6495 35.0691C19.6688 35.0148 19.7276 34.9744 19.7677 34.9275L19.7713 36.0081L19.4097 36.9356L18.9908 36.7886Z" fill="#DBDAC7"/>
<path fill-rule="evenodd" clip-rule="evenodd" d="M19.4097 36.9357L19.7713 36.0083L19.8458 37.1056L19.4097 36.9357Z" fill="#EBE9DC"/>
<path fill-rule="evenodd" clip-rule="evenodd" d="M20.0284 32.9228C19.9702 32.6714 20.0667 32.4722 20.2412 32.3003L20.3413 32.3686L20.0284 32.9228Z" fill="#CECDB7"/>
<path fill-rule="evenodd" clip-rule="evenodd" d="M19.0938 28.2544L19.0742 28.2511L19.0546 28.2541L19.1006 28.0881L19.0938 28.2544Z" fill="#4FAA41"/>
</svg>
