<svg width="41" height="41" viewBox="0 0 41 41" fill="none" xmlns="http://www.w3.org/2000/svg">
<g clip-path="url(#clip0_108_243)">
<path d="M24.1413 0C23.8448 0 23.5695 0.0637809 23.3154 0.148818C23.8554 0.510231 24.1519 0.988577 24.3001 1.5307C24.3107 1.6051 24.3319 1.65826 24.3425 1.73266C24.3531 1.79644 24.3636 1.86022 24.3636 1.924C24.406 2.85943 24.1201 2.97635 23.9189 3.5291C23.6119 4.24131 23.6966 5.00665 24.0672 5.62319C24.0989 5.69759 24.1413 5.78263 24.1942 5.85704C23.7919 3.16769 26.026 2.76376 26.4389 1.924C26.4707 1.19054 25.8672 0.701569 25.3907 0.361414C24.9354 0.0850389 24.5224 0 24.1413 0ZM27.5084 0.605901C27.466 0.850387 27.4978 0.786608 27.4872 0.914167C27.4766 0.999204 27.4766 1.1055 27.466 1.19054C27.4449 1.27558 27.4237 1.36062 27.3919 1.44566C27.3708 1.5307 27.339 1.61574 27.3072 1.70077C27.2648 1.78582 27.2331 1.86022 27.1907 1.94526C27.159 1.9878 27.1378 2.0303 27.106 2.07282C27.0849 2.10471 27.0637 2.1366 27.0425 2.16849C26.9896 2.2429 26.9366 2.3173 26.8837 2.38108C26.8201 2.44486 26.7672 2.51927 26.6931 2.57242V2.58307C26.6296 2.63622 26.566 2.69999 26.4919 2.75314C26.2696 2.92322 26.0154 3.05078 25.7825 3.21023C25.7084 3.26337 25.6343 3.3059 25.5707 3.36967C25.4966 3.42282 25.4331 3.47597 25.3696 3.53975C25.2954 3.60353 25.2425 3.66731 25.179 3.74172C25.126 3.8055 25.0625 3.8799 25.0201 3.95432C24.9672 4.02872 24.9143 4.10313 24.8719 4.17754C24.8295 4.26258 24.7978 4.33699 24.7554 4.42203C24.7237 4.50706 24.6919 4.58147 24.6707 4.66651C24.639 4.76218 24.6178 4.84722 24.5966 4.93226C24.586 4.9748 24.586 5.02793 24.5754 5.07045C24.5648 5.11298 24.5648 5.15548 24.5543 5.19801C24.5543 5.28304 24.5437 5.37871 24.5437 5.46375C24.5437 5.52753 24.5437 5.59131 24.5543 5.65509C24.5543 5.74013 24.5649 5.82516 24.586 5.92083C24.5966 6.00587 24.6178 6.09091 24.639 6.17595C24.6708 6.26099 24.6919 6.34603 24.7237 6.43106C24.7449 6.48422 24.7766 6.53736 24.7978 6.57988L22.3625 5.63383C21.9496 5.5169 21.5472 5.4106 21.1343 5.31493C20.9119 5.26179 20.6896 5.20863 20.4672 5.15548C19.8319 5.02793 19.186 4.93226 18.5401 4.86848C18.519 4.86848 18.5084 4.85784 18.4872 4.85784C17.8519 4.79406 17.2272 4.76217 16.5919 4.76217C16.126 4.76217 15.6601 4.78341 15.2048 4.81532C14.5589 4.85785 13.913 4.94288 13.2671 5.04917C13.1083 5.07042 12.9495 5.10233 12.7907 5.13422C12.4624 5.19799 12.1448 5.2724 11.8377 5.34681C11.6789 5.38935 11.5201 5.43185 11.3612 5.47437C11.2024 5.53814 11.0542 5.61256 10.9059 5.67634C10.7895 5.72948 10.673 5.78263 10.5565 5.83578C10.5354 5.84643 10.5142 5.84643 10.5036 5.85703C10.3977 5.91018 10.3024 5.95269 10.2071 6.00585C10.1754 6.01649 10.1542 6.02709 10.133 6.03773C10.0165 6.09088 9.90006 6.15466 9.80476 6.20781C9.73064 6.2397 9.65653 6.28222 9.593 6.31411C9.56123 6.33535 9.51888 6.35665 9.4977 6.36726C9.4024 6.42041 9.30711 6.47355 9.2224 6.52671C9.12711 6.57985 9.0424 6.633 8.96828 6.68615C8.89417 6.7393 8.82005 6.78182 8.75652 6.83497C8.74591 6.84561 8.73536 6.84561 8.72475 6.85621C8.66122 6.89875 8.5871 6.95188 8.52357 7.00503C8.52357 7.00503 8.51297 7.01568 8.50241 7.02628C8.44947 7.06881 8.39653 7.11131 8.34359 7.15383C8.32243 7.16447 8.30122 7.18572 8.28006 7.19637C8.22712 7.2389 8.17418 7.29204 8.12124 7.33456C8.11063 7.3558 8.08947 7.36645 8.07887 7.37709C8.01534 7.44087 7.95181 7.49402 7.88828 7.5578C7.87767 7.5578 7.87767 7.56844 7.86712 7.57904C7.80359 7.63219 7.74006 7.69597 7.67653 7.75975C7.66592 7.7704 7.66592 7.78099 7.65537 7.78099C7.60243 7.83414 7.54949 7.88729 7.49654 7.95107C7.47538 7.97231 7.4436 7.99361 7.42242 8.01485C7.36948 8.07863 7.30595 8.14241 7.24242 8.20619C7.23182 8.22743 7.21066 8.23808 7.20005 8.25933C7.11535 8.34438 7.04123 8.42941 6.95652 8.51445C6.94592 8.5251 6.93536 8.53569 6.92476 8.54634C6.75534 8.72705 6.57534 8.90776 6.38475 9.0672C6.19416 9.23728 5.99299 9.39673 5.79181 9.53491C5.58004 9.68374 5.37886 9.81129 5.15651 9.93885C4.94474 10.0558 4.72238 10.1621 4.48944 10.2577C4.26709 10.3534 4.03415 10.4385 3.80121 10.5129C3.35649 10.6085 2.9012 10.7892 2.50943 10.8211C2.42472 10.8211 2.32943 10.8424 2.24472 10.853C2.14943 10.8743 2.06472 10.8955 1.98002 10.9168C1.89531 10.9487 1.8106 10.9806 1.72589 11.0125C1.64119 11.0444 1.55648 11.0869 1.47178 11.1294C1.39766 11.1825 1.31295 11.2251 1.23883 11.2782C1.16472 11.3314 1.0906 11.3951 1.02706 11.4589C0.95295 11.5121 0.878829 11.5865 0.815299 11.6503C0.751768 11.7247 0.688238 11.7884 0.635298 11.8628C0.582358 11.9479 0.518827 12.0223 0.476472 12.1073C0.423532 12.1817 0.370591 12.2668 0.328236 12.3518C0.285866 12.4475 0.243531 12.5325 0.211765 12.6282C0.18 12.7132 0.148235 12.8089 0.11647 12.9046C0.09531 12.9896 0.0740999 13.0746 0.0635298 13.1597C0.0635298 13.1703 0.0529252 13.1809 0.0529252 13.1916C0.031765 13.2872 0.031765 13.4148 0.0211599 13.4786C0.0105553 13.553 0 13.6168 0 13.6912C0 13.7337 0 13.7868 0.0106046 13.8294C0.0212092 13.9038 0.0317645 13.9676 0.0529747 14.0313C0.0741348 14.0951 0.0953449 14.1589 0.12709 14.2227V14.2333C0.158855 14.2971 0.201211 14.3609 0.243561 14.4247C0.285931 14.4884 0.328271 14.5522 0.381211 14.616C0.434152 14.6691 0.497682 14.7329 0.561212 14.7861C0.624743 14.8499 0.688273 14.903 0.762389 14.9561C1.01651 15.1794 1.08004 15.2538 1.40828 15.4239C1.46122 15.4558 1.51416 15.477 1.57769 15.5089C1.5883 15.5089 1.59885 15.5195 1.60946 15.5195C1.60946 15.5408 1.60946 15.5514 1.62006 15.5727C1.63067 15.6577 1.65183 15.7428 1.673 15.8278C1.69416 15.9235 1.72595 16.0085 1.75772 16.0829C1.78948 16.1467 1.81066 16.2105 1.84242 16.2743C1.85303 16.2955 1.86358 16.3168 1.87419 16.3274C1.91656 16.4125 1.95889 16.4869 2.00124 16.5613C2.05419 16.6357 2.10713 16.7101 2.16007 16.7845C2.21301 16.8483 2.27654 16.9227 2.34007 16.9865C2.4036 17.0502 2.46713 17.1034 2.54125 17.1672C2.54125 17.1672 2.55186 17.1778 2.56241 17.1778C2.62594 17.231 2.68947 17.2841 2.753 17.3266C2.82712 17.3798 2.90124 17.4223 2.98594 17.4648C3.06006 17.5074 3.14477 17.5499 3.22947 17.5818C3.293 17.6137 3.36712 17.6349 3.44124 17.6562C3.45185 17.6668 3.4624 17.6668 3.48361 17.6774C3.52598 17.6881 3.5789 17.6987 3.62126 17.7093C3.58949 18.2833 3.57889 18.8254 3.66363 19.0168C3.75892 19.2294 4.2248 18.581 4.69069 17.8369C4.62716 18.5703 4.58481 19.4313 4.69069 19.6865C4.80716 19.9522 5.44246 19.1231 5.99305 18.2089C13.5002 16.4656 20.3508 21.6742 21.0708 29.0301C20.9332 27.8821 19.5249 27.2443 18.879 27.4037C18.5614 28.1903 18.0214 29.2002 17.1531 29.8273C17.2273 29.1257 17.1955 28.4029 17.0473 27.7013C16.8143 28.6793 16.359 29.5935 15.7343 30.3801C14.7284 30.4545 13.7225 29.9655 13.1931 29.232C13.1507 29.2002 13.1402 29.1364 13.1084 29.0939C13.0766 29.0194 13.0449 28.945 13.0237 28.8706C12.9919 28.7962 12.9707 28.7218 12.9602 28.6474C12.9496 28.573 12.9496 28.4986 12.9496 28.4136C12.9496 28.3604 12.9496 28.3073 12.9496 28.2541C12.9602 28.1797 12.9813 28.1053 13.0025 28.0309C13.0237 27.9565 13.0449 27.8821 13.0766 27.8076C13.119 27.7332 13.1507 27.6588 13.2037 27.5844C13.3837 27.0742 13.3837 26.6596 13.0554 26.4151C12.9919 26.3726 12.9284 26.3407 12.8543 26.3088C12.8119 26.2982 12.759 26.277 12.7166 26.2663C12.6848 26.2557 12.6637 26.2451 12.6319 26.2344C12.5578 26.2132 12.4837 26.1919 12.4096 26.1813C12.3354 26.16 12.2613 26.1494 12.1872 26.1494C12.1131 26.1387 12.0284 26.1281 11.9543 26.1281C11.9013 26.1281 11.8484 26.1388 11.7954 26.1388C11.7107 26.1388 11.6366 26.1494 11.5625 26.1707C11.4884 26.1813 11.4143 26.1919 11.3401 26.2132C11.266 26.2344 11.1919 26.2557 11.1178 26.2876C11.0437 26.3195 10.9801 26.3514 10.906 26.3833C10.8425 26.4152 10.779 26.4577 10.7048 26.4896C8.23775 28.1053 9.70953 31.8895 11.3931 32.9844C10.7578 33.1013 10.1119 33.2395 9.93189 33.3777C9.92128 33.3884 9.91073 33.399 9.91073 33.399C10.366 33.6753 10.8425 33.9092 11.3401 34.1111C12.0178 34.3344 12.7378 34.5363 13.0555 34.6214V34.632C13.9343 34.8127 14.8237 34.8765 15.7237 34.8234C20.4143 34.4938 24.2579 30.9116 24.9567 26.1919C24.9779 26.2876 24.9991 26.3726 25.0203 26.4683C25.052 26.6597 25.0944 26.8616 25.1155 27.0636V27.0742C25.1367 27.1699 25.1473 27.2656 25.1579 27.3506V27.3932C25.1685 27.4888 25.1791 27.5845 25.1791 27.6695C25.1897 27.7865 25.2002 27.9034 25.2002 28.0203V28.1904C25.2002 28.2435 25.2108 28.3073 25.2108 28.3605C25.2108 28.4243 25.2002 28.488 25.2002 28.5518V28.7006C25.2002 28.775 25.1896 28.8388 25.1896 28.9132C25.1896 28.9558 25.1896 28.9983 25.179 29.0514C25.179 29.1258 25.1684 29.2002 25.1684 29.2853C25.1578 29.3172 25.1578 29.349 25.1578 29.3809C25.1472 29.466 25.1366 29.5404 25.126 29.6254C25.126 29.6573 25.126 29.6892 25.1154 29.7211C25.1048 29.8274 25.0837 29.9231 25.0731 30.0294V30.04V30.0507C25.0519 30.1463 25.0307 30.2526 25.0095 30.3483V30.3802C24.9884 30.4758 24.9672 30.5715 24.946 30.6672C24.946 30.6778 24.9354 30.6991 24.9354 30.7097C24.9142 30.8054 24.893 30.9011 24.8613 30.9967V31.0286C24.8295 31.1349 24.7978 31.2306 24.7766 31.3263C24.766 31.3369 24.766 31.3475 24.766 31.3475C24.7342 31.4538 24.7024 31.5601 24.6707 31.6664C24.6283 31.7727 24.5966 31.8684 24.5542 31.9747C24.5118 32.081 24.4801 32.1873 24.4377 32.2829C24.3954 32.3892 24.353 32.4849 24.3107 32.5912H24.3001C24.2577 32.6869 24.2153 32.7932 24.1624 32.8888C24.1518 32.9207 24.1412 32.942 24.1306 32.9632C24.12 32.9739 24.12 32.9845 24.1095 32.9951C23.4212 34.3876 22.4048 35.6101 21.1342 36.5667C21.0495 36.6199 20.9648 36.6837 20.8801 36.7475C20.8589 36.7687 20.8271 36.7793 20.8059 36.8006C20.7318 36.8537 20.6577 36.9069 20.573 36.96L20.6048 37.0238H20.6154C20.7636 37.0026 20.9118 36.9813 21.0601 36.96H21.0707C21.346 36.9175 21.6213 36.8644 21.8966 36.8112C21.9707 36.8006 22.0554 36.7793 22.1295 36.7581C22.1824 36.7474 22.2248 36.7368 22.2777 36.7262C22.3519 36.7155 22.426 36.6943 22.5001 36.6837C22.5636 36.6624 22.6272 36.6518 22.6907 36.6305C23.7495 36.3754 24.7766 36.0246 25.7613 35.61C24.0777 37.9167 21.8224 39.7769 19.1859 40.9994C20.4036 40.9143 21.6213 40.7124 22.7966 40.3722C27.0637 39.1073 30.6531 36.2266 32.8025 32.3467C32.3684 34.8022 31.3943 37.1407 29.9543 39.1817C30.9813 38.5014 31.9237 37.7147 32.7813 36.8218C35.1531 34.3345 36.7096 31.1774 37.239 27.7865C37.599 29.466 37.7049 31.1987 37.5461 32.9101C45.1908 22.2058 38.1814 11.1083 35.2484 8.18507C35.2378 8.16382 35.2273 8.15318 35.2273 8.13192C35.2166 8.14256 35.2166 8.14256 35.2166 8.15316C35.2166 8.14252 35.2166 8.14252 35.206 8.13192C35.206 8.25948 35.1954 8.38703 35.1849 8.51459C35.1531 8.75908 35.1213 8.99293 35.079 9.22679C35.0261 9.46065 34.9625 9.6945 34.899 9.92836C34.8249 10.1516 34.7402 10.3854 34.6449 10.6087C34.5496 10.8213 34.4437 11.0445 34.3272 11.2571C34.2108 11.4591 34.0837 11.6717 33.946 11.863C33.8084 12.065 33.6602 12.2563 33.5119 12.437C33.3531 12.6283 33.1837 12.7984 33.0143 12.9685C32.9084 13.0642 32.8131 13.1492 32.7072 13.2342C32.6225 13.3086 32.5484 13.3724 32.4637 13.4468C32.2731 13.5956 32.0825 13.7338 31.8707 13.8614C31.6696 13.989 31.4578 14.1165 31.246 14.2228C31.0237 14.3291 30.8013 14.4248 30.579 14.5204C30.3566 14.6055 30.1237 14.6799 29.8907 14.7437C29.6578 14.8075 29.4142 14.8606 29.1813 14.9031C28.9378 14.9457 28.6942 14.9669 28.4613 14.9882C28.2919 14.9988 28.1225 15.0094 27.9531 15.0094C27.7095 15.0094 27.466 14.9882 27.2331 14.9669C26.9895 14.9456 26.746 14.9137 26.5131 14.8606C26.2695 14.818 26.0366 14.7543 25.8036 14.6799H25.793C26.026 14.6586 26.2589 14.6373 26.4919 14.5948C26.7354 14.5523 26.9683 14.4992 27.2013 14.4354C27.4342 14.3716 27.6672 14.2972 27.8895 14.2121C28.1225 14.1271 28.3448 14.0208 28.5566 13.9145C28.7789 13.8082 28.9801 13.6913 29.1919 13.5637C29.3931 13.4255 29.5942 13.2874 29.7848 13.1385C29.9754 12.9897 30.1554 12.8303 30.3248 12.6602C30.5048 12.5007 30.6637 12.32 30.8225 12.1393C30.9813 11.948 31.1295 11.7567 31.2672 11.5653C31.2884 11.5334 31.3096 11.4909 31.3307 11.459C31.4366 11.2889 31.5425 11.1189 31.6378 10.9488C31.7542 10.7362 31.8601 10.5236 31.9554 10.3004C32.0507 10.0771 32.1354 9.85391 32.2095 9.62006C32.2837 9.39683 32.3366 9.16298 32.3896 8.92912C32.4319 8.68463 32.4743 8.45077 32.4954 8.21692C32.5166 7.97243 32.5378 7.72795 32.5378 7.49409C32.5378 7.32401 32.5272 7.15394 32.5166 6.98386C32.4955 6.73938 32.4637 6.50552 32.4319 6.27166C32.3896 6.02717 32.3366 5.79332 32.2731 5.55946C32.199 5.33624 32.1249 5.10238 32.0402 4.87916C31.9555 4.65593 31.8496 4.4327 31.7437 4.2201C31.6272 4.0075 31.5108 3.79491 31.3837 3.59294C31.246 3.39098 31.1084 3.19964 30.9602 3.0083C30.8013 2.82759 30.6425 2.64689 30.4731 2.46618C30.3884 2.38114 30.2931 2.28547 30.1978 2.20044C29.7213 1.82839 29.2237 1.4776 28.726 1.15871C28.6519 1.11618 28.5884 1.0843 28.5143 1.05241C28.1648 0.829187 27.8366 0.712196 27.5084 0.605901Z" fill="#E0234E"/>
</g>
<defs>
<clipPath id="clip0_108_243">
<rect width="41" height="41" fill="white"/>
</clipPath>
</defs>
</svg>
