<svg width="37" height="41" viewBox="0 0 37 41" fill="none" xmlns="http://www.w3.org/2000/svg">
<mask id="mask0_108_345" style="mask-type:luminance" maskUnits="userSpaceOnUse" x="1" y="1" width="34" height="39">
<path d="M17.265 1.73996L2.40239 10.3196C2.12927 10.4764 1.90231 10.7025 1.74438 10.975C1.58645 11.2475 1.50313 11.5568 1.50281 11.8718V29.0451C1.50281 29.6837 1.845 30.2799 2.40239 30.5974L17.265 39.184C17.5385 39.3419 17.8488 39.4251 18.1646 39.4251C18.4804 39.4251 18.7907 39.3419 19.0642 39.184L33.9233 30.5974C34.1953 30.4395 34.4211 30.2131 34.5784 29.9408C34.7356 29.6684 34.8187 29.3596 34.8194 29.0451V11.8753C34.8194 11.2333 34.4771 10.6406 33.9198 10.3231L19.0607 1.73996C18.7869 1.58273 18.4768 1.5 18.1611 1.5C17.8454 1.5 17.5352 1.58273 17.2615 1.73996" fill="white"/>
</mask>
<g mask="url(#mask0_108_345)">
<path d="M49.8372 8.86602L7.95867 -11.6658L-13.515 32.1424L28.3635 52.6707L49.8372 8.86602Z" fill="url(#paint0_linear_108_345)"/>
</g>
<mask id="mask1_108_345" style="mask-type:luminance" maskUnits="userSpaceOnUse" x="1" y="1" width="34" height="39">
<path d="M1.87323 30.1352C2.01754 30.3225 2.19735 30.4796 2.4024 30.5974L15.1519 37.9634L17.2756 39.184C17.4837 39.3032 17.7136 39.3796 17.9517 39.4087C18.1898 39.4378 18.4313 39.419 18.662 39.3534L34.3396 10.6512C34.2172 10.5201 34.0756 10.4083 33.9198 10.3196L24.1901 4.69978L19.043 1.73642C18.8967 1.65476 18.7401 1.59306 18.5774 1.55298L1.87323 30.1352Z" fill="white"/>
</mask>
<g mask="url(#mask1_108_345)">
<path d="M-16.235 14.9339L13.3386 54.9604L52.4443 26.0677L22.8707 -13.9587L-16.235 14.9339Z" fill="url(#paint1_linear_108_345)"/>
</g>
<mask id="mask2_108_345" style="mask-type:luminance" maskUnits="userSpaceOnUse" x="2" y="1" width="33" height="39">
<path d="M17.9847 1.51072C17.7311 1.53688 17.4859 1.61622 17.265 1.74356L2.44824 10.2949L18.4292 39.4028C18.6479 39.3711 18.8666 39.297 19.0642 39.1841L33.9268 30.5974C34.151 30.4679 34.3447 30.2914 34.4944 30.0802C34.6442 29.8689 34.7466 29.6278 34.7946 29.3733L18.5033 1.53894C18.3836 1.51534 18.2619 1.50352 18.1399 1.50366L17.9917 1.51072" fill="white"/>
</mask>
<g mask="url(#mask2_108_345)">
<path d="M2.4447 1.50366V39.4028H34.7876V1.50366H2.4447Z" fill="url(#paint2_linear_108_345)"/>
</g>
<defs>
<linearGradient id="paint0_linear_108_345" x1="28.8856" y1="-1.43162" x2="7.41186" y2="42.3695" gradientUnits="userSpaceOnUse">
<stop offset="0.3" stop-color="#3E863D"/>
<stop offset="0.5" stop-color="#55934F"/>
<stop offset="0.8" stop-color="#5AAD45"/>
</linearGradient>
<linearGradient id="paint1_linear_108_345" x1="-1.27356" y1="35.1765" x2="37.8392" y2="6.28025" gradientUnits="userSpaceOnUse">
<stop offset="0.57" stop-color="#3E863D"/>
<stop offset="0.72" stop-color="#619857"/>
<stop offset="1" stop-color="#76AC64"/>
</linearGradient>
<linearGradient id="paint2_linear_108_345" x1="2.45529" y1="20.455" x2="34.7946" y2="20.455" gradientUnits="userSpaceOnUse">
<stop offset="0.16" stop-color="#6BBF47"/>
<stop offset="0.38" stop-color="#79B461"/>
<stop offset="0.47" stop-color="#75AC64"/>
<stop offset="0.7" stop-color="#659E5A"/>
<stop offset="0.9" stop-color="#3E863D"/>
</linearGradient>
</defs>
</svg>
