<svg width="32" height="32" viewBox="0 0 32 32" fill="none" xmlns="http://www.w3.org/2000/svg">
<path fill-rule="evenodd" clip-rule="evenodd" d="M25.21 24.2099L12.739 27.9279C12.6521 27.9542 12.5599 27.9576 12.4713 27.9377C12.3827 27.9177 12.3008 27.8751 12.2336 27.8141C12.1664 27.753 12.1162 27.6756 12.0879 27.5893C12.0596 27.503 12.0541 27.4109 12.072 27.3219L16.528 5.8109C16.5469 5.72303 16.5928 5.64328 16.6593 5.58284C16.7258 5.5224 16.8095 5.48432 16.8988 5.47395C16.9881 5.46358 17.0784 5.48144 17.157 5.52501C17.2355 5.56859 17.2985 5.6357 17.337 5.7169L25.586 23.3779C25.623 23.4564 25.6425 23.542 25.6432 23.6288C25.6439 23.7156 25.6257 23.8016 25.59 23.8807C25.5542 23.9597 25.5017 24.0301 25.4361 24.087C25.3705 24.1438 25.2934 24.1858 25.21 24.2099ZM27.349 23.3319L17.8 2.8829C17.6826 2.63068 17.4987 2.41521 17.2681 2.25964C17.0375 2.10406 16.7688 2.01427 16.491 1.9999C16.2132 1.98079 15.9354 2.03874 15.6884 2.16737C15.4414 2.296 15.2347 2.49031 15.091 2.7289L4.73601 19.6479C4.57804 19.904 4.4959 20.1996 4.49908 20.5005C4.50227 20.8014 4.59066 21.0952 4.75401 21.3479L9.81801 29.2569C10.0088 29.5525 10.2903 29.7783 10.6202 29.9005C10.9501 30.0227 11.3107 30.0348 11.648 29.9349L26.348 25.5519C26.57 25.4872 26.7754 25.3752 26.9499 25.2235C27.1245 25.0719 27.2641 24.8842 27.3592 24.6734C27.4542 24.4626 27.5024 24.2336 27.5005 24.0024C27.4986 23.7712 27.4466 23.5431 27.348 23.3339L27.349 23.3319Z" fill="#0C344B"/>
</svg>
