<svg width="47" height="28" viewBox="0 0 47 28" fill="none" xmlns="http://www.w3.org/2000/svg">
<g clip-path="url(#clip0_108_247)">
<path d="M23.5 0C17.2333 0 13.3167 3.10303 11.75 9.30909C14.1 6.20606 16.8417 5.04242 19.975 5.81818C21.7627 6.26079 23.0405 7.54519 24.4549 8.96698C26.7589 11.283 29.4256 13.9636 35.25 13.9636C41.5167 13.9636 45.4333 10.8606 47 4.65455C44.65 7.75758 41.9083 8.92121 38.775 8.14545C36.9873 7.70284 35.7095 6.41845 34.2951 4.99665C31.9911 2.68059 29.3244 0 23.5 0ZM11.75 13.9636C5.48333 13.9636 1.56667 17.0667 0 23.2727C2.35 20.1697 5.09167 19.0061 8.225 19.7818C10.0127 20.2244 11.2905 21.5088 12.7049 22.9306C15.0089 25.2467 17.6756 27.9273 23.5 27.9273C29.7667 27.9273 33.6833 24.8242 35.25 18.6182C32.9 21.7212 30.1583 22.8848 27.025 22.1091C25.2373 21.6665 23.9595 20.3821 22.5451 18.9603C20.2411 16.6442 17.5744 13.9636 11.75 13.9636Z" fill="url(#paint0_linear_108_247)"/>
</g>
<defs>
<linearGradient id="paint0_linear_108_247" x1="-334.222" y1="1376.26" x2="11157.9" y2="5401.19" gradientUnits="userSpaceOnUse">
<stop stop-color="#2298BD"/>
<stop offset="1" stop-color="#0ED7B5"/>
</linearGradient>
<clipPath id="clip0_108_247">
<rect width="47" height="28" fill="white"/>
</clipPath>
</defs>
</svg>
