<svg width="26" height="26" viewBox="0 0 26 26" fill="none" xmlns="http://www.w3.org/2000/svg">
<g clip-path="url(#clip0_108_298)">
<path d="M0 13V26H13H26V13V0H13H0V13Z" fill="#007ACC"/>
<path d="M5.74958 13.0862L5.74132 14.151H7.43339H9.12545V18.9589V23.7668H10.3223H11.5191V18.9589V14.151H13.2112H14.9032V13.1068C14.9032 12.5291 14.8908 12.0462 14.8743 12.0338C14.862 12.0173 12.8026 12.0091 10.3058 12.0132L5.76196 12.0256L5.74958 13.0862Z" fill="white"/>
<path d="M20.9794 11.9955C21.6397 12.1606 22.1432 12.4536 22.6055 12.9323C22.8448 13.1882 23.1997 13.6545 23.2286 13.766C23.2369 13.799 22.1061 14.5583 21.421 14.9834C21.3962 14.9999 21.2972 14.8926 21.1858 14.7276C20.8515 14.2406 20.5007 14.0301 19.9642 13.9929C19.1759 13.9393 18.6683 14.352 18.6724 15.0412C18.6724 15.2434 18.7013 15.3631 18.7839 15.5282C18.9572 15.8872 19.2791 16.1018 20.2902 16.5393C22.1515 17.3399 22.948 17.8682 23.4432 18.6193C23.9962 19.4571 24.1201 20.7942 23.7445 21.7888C23.3318 22.8701 22.3083 23.6047 20.868 23.8482C20.4223 23.9266 19.3658 23.9142 18.887 23.8276C17.8429 23.6418 16.8524 23.126 16.2416 22.4491C16.0023 22.185 15.5359 21.4958 15.5648 21.4463C15.5772 21.4298 15.6845 21.3637 15.8042 21.2936C15.9197 21.2276 16.3572 20.9758 16.7699 20.7364L17.5169 20.3031L17.6737 20.5342C17.8924 20.8685 18.3712 21.3266 18.6601 21.4793C19.4896 21.9168 20.6286 21.8549 21.1899 21.3514C21.4293 21.1326 21.5283 20.9056 21.5283 20.5714C21.5283 20.2701 21.4912 20.138 21.3343 19.911C21.1321 19.6222 20.7194 19.3787 19.5474 18.871C18.2061 18.2933 17.6283 17.9342 17.1001 17.3647C16.7947 17.0345 16.5058 16.5063 16.3861 16.0647C16.287 15.6974 16.2623 14.7771 16.3407 14.4056C16.6172 13.1098 17.5953 12.206 19.0067 11.9377C19.4648 11.851 20.5296 11.8841 20.9794 11.9955Z" fill="white"/>
</g>
<defs>
<clipPath id="clip0_108_298">
<rect width="26" height="26" fill="white"/>
</clipPath>
</defs>
</svg>
