<svg width="55" height="44" viewBox="0 0 55 44" fill="none" xmlns="http://www.w3.org/2000/svg">
<path d="M1.86108 8.12499V21.5417H4.81942V24.4167H7.77775V31.125H13.6944V36.875H18.625H19.6111V31.125H35.3889V36.875H41.3055V31.125H47.2222V24.4167H50.1805V21.5417H53.1389V7.16666H47.2222V11V11.9583H40.3194V7.16666H36.375V1.41666H30.4583V7.16666H23.5555V1.41666H17.6389V7.16666H13.6944V11.9583H7.77775V7.16666H1.86108V8.12499Z" fill="#8967AA"/>
<path d="M7.77777 36.875H13.6944V42.625H7.77777V36.875Z" fill="#8967AA"/>
<path d="M41.3055 36.875H47.2222V42.625H41.3055V36.875Z" fill="#8967AA"/>
<path d="M16.8253 17.7083H20.3753V23.4583H16.8253V17.7083Z" fill="black" stroke="black" stroke-width="2" stroke-linecap="round" stroke-linejoin="round"/>
<path d="M13.6944 31.125H7.77777V25.375" stroke="black" stroke-width="2" stroke-linecap="round" stroke-linejoin="round"/>
<path d="M14.2693 11.9583V7.16666H17.6389" stroke="black" stroke-width="2" stroke-linecap="round" stroke-linejoin="round"/>
<path d="M40.0315 11.9583V7.16666H36.6629" stroke="black" stroke-width="2" stroke-linecap="round" stroke-linejoin="round"/>
<path d="M4.81942 21.5417H1.86108V7.16666H7.77775V21.5417" stroke="black" stroke-width="2" stroke-linecap="round" stroke-linejoin="round"/>
<path d="M47.2222 21.5417V7.16666H53.1388V21.5417H50.1805" stroke="black" stroke-width="2" stroke-linecap="round" stroke-linejoin="round"/>
<path d="M17.6389 7.16666V1.41666H23.5555V7.16666" stroke="black" stroke-width="2" stroke-linecap="round" stroke-linejoin="round"/>
<path d="M30.4583 7.16666V1.41666H36.375V7.16666" stroke="black" stroke-width="2" stroke-linecap="round" stroke-linejoin="round"/>
<path d="M7.77773 21.5417H10.7361V24.4167H4.8194V21.5417" stroke="black" stroke-width="2" stroke-linecap="round" stroke-linejoin="round"/>
<path d="M50.1805 21.5417V24.4167H44.2639V21.5417H47.2222" stroke="black" stroke-width="2" stroke-linecap="round" stroke-linejoin="round"/>
<path d="M7.77777 36.875H13.6944V42.625H7.77777V36.875Z" stroke="black" stroke-width="2" stroke-linecap="round" stroke-linejoin="round"/>
<path d="M41.3055 36.875H47.2222V42.625H41.3055V36.875Z" stroke="black" stroke-width="2" stroke-linecap="round" stroke-linejoin="round"/>
<path d="M19.6111 31.125V36.875H13.6944V31.125" stroke="black" stroke-width="2" stroke-linecap="round" stroke-linejoin="round"/>
<path d="M41.3055 31.125H47.2222V25.375" stroke="black" stroke-width="2" stroke-linecap="round" stroke-linejoin="round"/>
<path d="M35.3889 31.125V36.875H41.3055V31.125" stroke="black" stroke-width="2" stroke-linecap="round" stroke-linejoin="round"/>
<path d="M34.8218 17.7083H38.3718V23.4583H34.8218V17.7083Z" fill="black" stroke="black" stroke-width="2" stroke-linecap="round" stroke-linejoin="round"/>
<path d="M19.6111 31.125H35.3889" stroke="black" stroke-width="2" stroke-linecap="round" stroke-linejoin="round"/>
<path d="M23.5555 7.16666H30.4583" stroke="black" stroke-width="2" stroke-linecap="round" stroke-linejoin="round"/>
<path d="M7.77777 11.9583H13.6944" stroke="black" stroke-width="2" stroke-linecap="round" stroke-linejoin="round"/>
<path d="M40.3194 11.9583H47.2222" stroke="black" stroke-width="2" stroke-linecap="round" stroke-linejoin="round"/>
</svg>
