<svg width="593" height="263" viewBox="0 0 593 263" fill="none" xmlns="http://www.w3.org/2000/svg">
<path d="M100.641 232.657C100.641 248.661 87.0583 261.674 70.255 261.674C53.4518 261.674 39.8691 248.661 39.8691 232.657C39.8691 216.652 53.4518 203.639 70.255 203.639C87.0583 203.639 100.641 216.652 100.641 232.657Z" fill="white" stroke="#8F67EF"/>
<g clip-path="url(#clip0_103_91)">
<path d="M75.3154 238.493C78.1102 238.493 80.3758 236.328 80.3758 233.657C80.3758 230.986 78.1102 228.821 75.3154 228.821C72.5206 228.821 70.255 230.986 70.255 233.657C70.255 236.328 72.5206 238.493 75.3154 238.493Z" fill="#19BCFE"/>
<path fill-rule="evenodd" clip-rule="evenodd" d="M65.1946 248.166C67.9894 248.166 70.255 246 70.255 243.329C70.255 242.6 70.255 240.988 70.255 238.493C67.9817 238.493 66.2949 238.493 65.1946 238.493C62.3998 238.493 60.1342 240.659 60.1342 243.329C60.1342 246 62.3998 248.166 65.1946 248.166Z" fill="#09CF83"/>
<path fill-rule="evenodd" clip-rule="evenodd" d="M65.1946 238.493H70.255V228.821C67.813 228.821 66.1262 228.821 65.1946 228.821C62.3998 228.821 60.1342 230.986 60.1342 233.657C60.1342 236.328 62.3998 238.493 65.1946 238.493Z" fill="#A259FF"/>
<path fill-rule="evenodd" clip-rule="evenodd" d="M65.1946 228.821H70.255V219.149C67.813 219.149 66.1262 219.149 65.1946 219.149C62.3998 219.149 60.1342 221.314 60.1342 223.985C60.1342 226.656 62.3998 228.821 65.1946 228.821Z" fill="#F24E1E"/>
<path fill-rule="evenodd" clip-rule="evenodd" d="M75.3154 228.821H70.255V219.149H75.3154C78.1102 219.149 80.3758 221.314 80.3758 223.985C80.3758 226.656 78.1102 228.821 75.3154 228.821Z" fill="#FF7262"/>
</g>
<rect x="0.630859" y="27.0358" width="475.329" height="175.103" rx="33" fill="#D9D9D9"/>
<path d="M61.5117 114.06V79.1508H70.989V92.7872H83.5345V79.1508H93.0117V114.06H83.5345V100.424H70.989V114.06H61.5117ZM110.262 114.537C107.421 114.537 104.989 113.975 102.966 112.85C100.944 111.713 99.3924 110.134 98.3129 108.111C97.2333 106.077 96.6936 103.719 96.6936 101.037C96.6936 98.3553 97.2333 96.0031 98.3129 93.9803C99.3924 91.9463 100.944 90.3667 102.966 89.2417C104.989 88.1053 107.421 87.5372 110.262 87.5372C113.103 87.5372 115.534 88.1053 117.557 89.2417C119.58 90.3667 121.131 91.9463 122.211 93.9803C123.29 96.0031 123.83 98.3553 123.83 101.037C123.83 103.719 123.29 106.077 122.211 108.111C121.131 110.134 119.58 111.713 117.557 112.85C115.534 113.975 113.103 114.537 110.262 114.537ZM110.33 107.583C111.125 107.583 111.813 107.316 112.392 106.781C112.972 106.247 113.421 105.486 113.739 104.497C114.057 103.509 114.216 102.333 114.216 100.969C114.216 99.594 114.057 98.4178 113.739 97.4406C113.421 96.4519 112.972 95.6906 112.392 95.1565C111.813 94.6224 111.125 94.3553 110.33 94.3553C109.489 94.3553 108.767 94.6224 108.165 95.1565C107.563 95.6906 107.103 96.4519 106.784 97.4406C106.466 98.4178 106.307 99.594 106.307 100.969C106.307 102.333 106.466 103.509 106.784 104.497C107.103 105.486 107.563 106.247 108.165 106.781C108.767 107.316 109.489 107.583 110.33 107.583ZM137.057 79.1508V114.06H127.648V79.1508H137.057ZM149.147 114.469C147.476 114.469 145.999 114.196 144.715 113.651C143.442 113.094 142.442 112.253 141.715 111.128C140.988 110.003 140.624 108.571 140.624 106.833C140.624 105.401 140.868 104.179 141.357 103.168C141.846 102.145 142.527 101.31 143.402 100.662C144.277 100.014 145.294 99.5201 146.454 99.1792C147.624 98.8383 148.885 98.6167 150.238 98.5144C151.704 98.4008 152.88 98.2644 153.766 98.1053C154.664 97.9349 155.311 97.7019 155.709 97.4065C156.107 97.0997 156.306 96.6963 156.306 96.1963V96.1281C156.306 95.4463 156.044 94.9235 155.522 94.5599C154.999 94.1963 154.329 94.0144 153.51 94.0144C152.613 94.0144 151.88 94.2133 151.311 94.611C150.755 94.9974 150.419 95.594 150.306 96.4008H141.647C141.76 94.8099 142.266 93.344 143.164 92.0031C144.073 90.6508 145.397 89.5713 147.135 88.7644C148.874 87.9463 151.044 87.5372 153.647 87.5372C155.522 87.5372 157.204 87.7588 158.692 88.2019C160.181 88.6338 161.448 89.2417 162.493 90.0258C163.539 90.7985 164.334 91.7076 164.88 92.7531C165.436 93.7872 165.715 94.9122 165.715 96.1281V114.06H156.919V110.378H156.715C156.192 111.355 155.556 112.145 154.806 112.747C154.067 113.35 153.221 113.787 152.266 114.06C151.323 114.333 150.283 114.469 149.147 114.469ZM152.215 108.537C152.931 108.537 153.601 108.389 154.226 108.094C154.863 107.799 155.38 107.372 155.777 106.816C156.175 106.259 156.374 105.583 156.374 104.787V102.605C156.124 102.708 155.857 102.804 155.573 102.895C155.3 102.986 155.005 103.071 154.686 103.151C154.38 103.23 154.05 103.304 153.698 103.372C153.357 103.441 152.999 103.503 152.624 103.56C151.897 103.674 151.3 103.861 150.834 104.122C150.38 104.372 150.039 104.685 149.811 105.06C149.596 105.424 149.488 105.833 149.488 106.287C149.488 107.014 149.743 107.571 150.255 107.958C150.766 108.344 151.419 108.537 152.215 108.537Z" fill="black"/>
<path d="M75.2291 135.878V162.06H68.1211V135.878H75.2291ZM84.5295 135.878V138.946C84.5295 139.781 84.3591 140.617 84.0181 141.452C83.6858 142.279 83.2596 143.05 82.7397 143.766C82.2284 144.473 81.7 145.066 81.1545 145.543L78.2397 144.06C78.5977 143.446 78.9173 142.735 79.1985 141.925C79.4798 141.115 79.6204 140.122 79.6204 138.946V135.878H84.5295ZM87.1726 162.06V142.424H93.8715V146.156H94.076C94.4851 144.929 95.184 143.958 96.1726 143.242C97.1613 142.526 98.3374 142.168 99.701 142.168C101.082 142.168 102.271 142.534 103.268 143.267C104.265 143.992 104.866 144.955 105.07 146.156H105.275C105.607 144.955 106.315 143.992 107.397 143.267C108.479 142.534 109.749 142.168 111.207 142.168C113.09 142.168 114.616 142.773 115.783 143.983C116.96 145.193 117.548 146.804 117.548 148.816V162.06H110.491V150.605C110.491 149.745 110.273 149.071 109.839 148.585C109.404 148.091 108.82 147.844 108.087 147.844C107.363 147.844 106.788 148.091 106.362 148.585C105.944 149.071 105.735 149.745 105.735 150.605V162.06H98.9851V150.605C98.9851 149.745 98.7678 149.071 98.3331 148.585C97.8985 148.091 97.3147 147.844 96.5817 147.844C96.0959 147.844 95.6783 147.955 95.3289 148.176C94.9794 148.398 94.7067 148.718 94.5107 149.135C94.3232 149.544 94.2294 150.034 94.2294 150.605V162.06H87.1726ZM160.235 162.06V140.242H167.678V144.389H167.905C168.36 143.026 169.136 141.946 170.235 141.151C171.333 140.355 172.64 139.958 174.155 139.958C175.689 139.958 177.01 140.365 178.118 141.179C179.226 141.984 179.894 143.054 180.121 144.389H180.348C180.718 143.054 181.504 141.984 182.706 141.179C183.909 140.365 185.32 139.958 186.939 139.958C189.032 139.958 190.727 140.63 192.025 141.975C193.331 143.319 193.985 145.109 193.985 147.344V162.06H186.144V149.333C186.144 148.376 185.902 147.628 185.419 147.088C184.936 146.539 184.288 146.264 183.473 146.264C182.668 146.264 182.029 146.539 181.556 147.088C181.092 147.628 180.86 148.376 180.86 149.333V162.06H173.36V149.333C173.36 148.376 173.118 147.628 172.635 147.088C172.152 146.539 171.504 146.264 170.689 146.264C170.15 146.264 169.686 146.388 169.297 146.634C168.909 146.88 168.606 147.235 168.388 147.699C168.18 148.154 168.076 148.698 168.076 149.333V162.06H160.235ZM197.852 162.06V140.242H205.693V162.06H197.852ZM201.772 137.969C200.712 137.969 199.803 137.619 199.045 136.918C198.288 136.217 197.909 135.374 197.909 134.389C197.909 133.405 198.288 132.562 199.045 131.861C199.803 131.16 200.712 130.81 201.772 130.81C202.842 130.81 203.752 131.16 204.5 131.861C205.257 132.562 205.636 133.405 205.636 134.389C205.636 135.374 205.257 136.217 204.5 136.918C203.752 137.619 202.842 137.969 201.772 137.969ZM217.529 149.787V162.06H209.688V140.242H217.131V144.389H217.358C217.832 143.007 218.665 141.923 219.858 141.137C221.061 140.351 222.463 139.958 224.063 139.958C225.606 139.958 226.946 140.313 228.083 141.023C229.229 141.724 230.114 142.69 230.739 143.921C231.373 145.152 231.686 146.558 231.677 148.139V162.06H223.836V149.787C223.845 148.708 223.57 147.86 223.012 147.245C222.463 146.629 221.695 146.321 220.711 146.321C220.067 146.321 219.503 146.463 219.02 146.747C218.547 147.022 218.182 147.42 217.927 147.941C217.671 148.452 217.538 149.067 217.529 149.787ZM246.002 162.458C243.672 162.458 241.665 162.013 239.979 161.122C238.303 160.223 237.01 158.935 236.101 157.259C235.202 155.573 234.752 153.556 234.752 151.208C234.752 148.954 235.206 146.984 236.115 145.299C237.025 143.613 238.308 142.301 239.965 141.364C241.622 140.426 243.578 139.958 245.831 139.958C247.479 139.958 248.971 140.213 250.306 140.725C251.641 141.236 252.782 141.979 253.729 142.955C254.676 143.921 255.405 145.095 255.917 146.478C256.428 147.86 256.684 149.418 256.684 151.151V152.969H237.195V148.651H249.468C249.458 148.026 249.297 147.477 248.985 147.003C248.682 146.52 248.27 146.146 247.749 145.881C247.238 145.606 246.655 145.469 246.002 145.469C245.367 145.469 244.785 145.606 244.255 145.881C243.724 146.146 243.298 146.515 242.976 146.989C242.664 147.462 242.498 148.016 242.479 148.651V153.31C242.479 154.011 242.626 154.636 242.919 155.185C243.213 155.734 243.634 156.165 244.184 156.478C244.733 156.79 245.396 156.946 246.172 156.946C246.712 156.946 247.204 156.87 247.65 156.719C248.104 156.567 248.492 156.35 248.814 156.066C249.136 155.772 249.373 155.422 249.525 155.014H256.684C256.437 156.53 255.855 157.846 254.936 158.963C254.018 160.071 252.801 160.933 251.286 161.549C249.78 162.155 248.019 162.458 246.002 162.458ZM267.738 162.06V132.969H280.352C282.568 132.969 284.429 133.267 285.934 133.864C287.449 134.46 288.591 135.303 289.358 136.392C290.134 137.481 290.522 138.764 290.522 140.242C290.522 141.312 290.286 142.287 289.812 143.168C289.348 144.049 288.695 144.787 287.852 145.384C287.009 145.971 286.024 146.378 284.897 146.605V146.889C286.147 146.937 287.284 147.254 288.306 147.841C289.329 148.419 290.144 149.219 290.75 150.242C291.356 151.255 291.659 152.448 291.659 153.821C291.659 155.412 291.242 156.828 290.409 158.068C289.585 159.309 288.411 160.284 286.886 160.995C285.361 161.705 283.543 162.06 281.431 162.06H267.738ZM275.636 155.753H279.329C280.655 155.753 281.649 155.507 282.312 155.014C282.975 154.513 283.306 153.774 283.306 152.799C283.306 152.117 283.15 151.539 282.838 151.066C282.525 150.592 282.08 150.232 281.503 149.986C280.934 149.74 280.248 149.617 279.443 149.617H275.636V155.753ZM275.636 144.73H278.875C279.566 144.73 280.177 144.621 280.707 144.404C281.237 144.186 281.649 143.873 281.943 143.466C282.246 143.049 282.397 142.543 282.397 141.946C282.397 141.047 282.075 140.36 281.431 139.887C280.788 139.404 279.973 139.162 278.988 139.162H275.636V144.73ZM305.025 162.458C302.696 162.458 300.688 162.013 299.003 161.122C297.326 160.223 296.034 158.935 295.125 157.259C294.225 155.573 293.775 153.556 293.775 151.208C293.775 148.954 294.23 146.984 295.139 145.299C296.048 143.613 297.331 142.301 298.988 141.364C300.646 140.426 302.601 139.958 304.855 139.958C306.503 139.958 307.994 140.213 309.329 140.725C310.664 141.236 311.806 141.979 312.753 142.955C313.699 143.921 314.429 145.095 314.94 146.478C315.451 147.86 315.707 149.418 315.707 151.151V152.969H296.218V148.651H308.491C308.482 148.026 308.321 147.477 308.008 147.003C307.705 146.52 307.293 146.146 306.772 145.881C306.261 145.606 305.679 145.469 305.025 145.469C304.391 145.469 303.808 145.606 303.278 145.881C302.748 146.146 302.322 146.515 302 146.989C301.687 147.462 301.521 148.016 301.503 148.651V153.31C301.503 154.011 301.649 154.636 301.943 155.185C302.236 155.734 302.658 156.165 303.207 156.478C303.756 156.79 304.419 156.946 305.196 156.946C305.735 156.946 306.228 156.87 306.673 156.719C307.128 156.567 307.516 156.35 307.838 156.066C308.16 155.772 308.396 155.422 308.548 155.014H315.707C315.461 156.53 314.878 157.846 313.96 158.963C313.041 160.071 311.824 160.933 310.309 161.549C308.804 162.155 307.042 162.458 305.025 162.458ZM326.748 149.787V162.06H318.907V140.242H326.35V144.389H326.577C327.051 143.007 327.884 141.923 329.077 141.137C330.28 140.351 331.681 139.958 333.282 139.958C334.825 139.958 336.165 140.313 337.302 141.023C338.447 141.724 339.333 142.69 339.958 143.921C340.592 145.152 340.905 146.558 340.895 148.139V162.06H333.054V149.787C333.064 148.708 332.789 147.86 332.23 147.245C331.681 146.629 330.914 146.321 329.929 146.321C329.285 146.321 328.722 146.463 328.239 146.747C327.766 147.022 327.401 147.42 327.145 147.941C326.89 148.452 326.757 149.067 326.748 149.787ZM355.277 162.458C352.91 162.458 350.883 161.989 349.198 161.051C347.512 160.104 346.22 158.788 345.32 157.103C344.42 155.407 343.971 153.442 343.971 151.208C343.971 148.973 344.42 147.013 345.32 145.327C346.22 143.632 347.512 142.316 349.198 141.378C350.883 140.431 352.91 139.958 355.277 139.958C357.418 139.958 359.269 140.346 360.831 141.122C362.403 141.889 363.62 142.978 364.482 144.389C365.344 145.791 365.779 147.439 365.789 149.333H358.516C358.412 148.187 358.08 147.316 357.522 146.719C356.972 146.113 356.262 145.81 355.391 145.81C354.709 145.81 354.113 146.009 353.601 146.406C353.09 146.795 352.692 147.387 352.408 148.182C352.124 148.968 351.982 149.958 351.982 151.151C351.982 152.344 352.124 153.338 352.408 154.134C352.692 154.92 353.09 155.512 353.601 155.909C354.113 156.298 354.709 156.492 355.391 156.492C355.969 156.492 356.48 156.359 356.925 156.094C357.37 155.819 357.73 155.422 358.005 154.901C358.289 154.37 358.459 153.727 358.516 152.969H365.789C365.76 154.891 365.32 156.567 364.468 157.997C363.615 159.418 362.408 160.516 360.846 161.293C359.293 162.069 357.436 162.458 355.277 162.458ZM376.865 149.787V162.06H369.024V132.969H376.581V144.389H376.808C377.3 142.997 378.119 141.913 379.265 141.137C380.411 140.351 381.789 139.958 383.399 139.958C384.942 139.958 386.282 140.308 387.419 141.009C388.565 141.71 389.45 142.675 390.075 143.906C390.709 145.138 391.022 146.549 391.012 148.139V162.06H383.172V149.787C383.181 148.708 382.911 147.86 382.362 147.245C381.822 146.629 381.05 146.321 380.047 146.321C379.412 146.321 378.853 146.463 378.37 146.747C377.897 147.022 377.528 147.42 377.262 147.941C377.007 148.452 376.874 149.067 376.865 149.787ZM400.963 162.401C399.571 162.401 398.34 162.174 397.27 161.719C396.209 161.255 395.376 160.554 394.77 159.617C394.164 158.679 393.86 157.486 393.86 156.037C393.86 154.844 394.064 153.826 394.471 152.983C394.878 152.131 395.447 151.435 396.176 150.895C396.905 150.355 397.753 149.943 398.718 149.659C399.694 149.375 400.745 149.191 401.872 149.105C403.093 149.011 404.074 148.897 404.812 148.764C405.56 148.622 406.1 148.428 406.431 148.182C406.763 147.926 406.929 147.59 406.929 147.174V147.117C406.929 146.549 406.711 146.113 406.275 145.81C405.84 145.507 405.281 145.355 404.599 145.355C403.851 145.355 403.24 145.521 402.767 145.853C402.303 146.174 402.023 146.672 401.929 147.344H394.713C394.807 146.018 395.229 144.797 395.977 143.679C396.735 142.552 397.838 141.653 399.287 140.98C400.735 140.299 402.544 139.958 404.713 139.958C406.275 139.958 407.677 140.142 408.917 140.512C410.158 140.871 411.214 141.378 412.085 142.031C412.956 142.675 413.619 143.433 414.074 144.304C414.538 145.166 414.77 146.103 414.77 147.117V162.06H407.44V158.992H407.27C406.834 159.806 406.304 160.464 405.679 160.966C405.063 161.468 404.358 161.833 403.562 162.06C402.776 162.287 401.91 162.401 400.963 162.401ZM403.52 157.458C404.116 157.458 404.675 157.335 405.196 157.088C405.726 156.842 406.157 156.487 406.488 156.023C406.82 155.559 406.985 154.995 406.985 154.333V152.514C406.777 152.6 406.555 152.68 406.318 152.756C406.091 152.832 405.844 152.903 405.579 152.969C405.324 153.035 405.049 153.097 404.755 153.154C404.471 153.21 404.173 153.263 403.86 153.31C403.254 153.405 402.757 153.561 402.369 153.779C401.99 153.987 401.706 154.247 401.517 154.56C401.337 154.863 401.247 155.204 401.247 155.583C401.247 156.189 401.46 156.653 401.886 156.975C402.312 157.297 402.857 157.458 403.52 157.458ZM424.596 162.401C423.204 162.401 421.972 162.174 420.902 161.719C419.842 161.255 419.008 160.554 418.402 159.617C417.796 158.679 417.493 157.486 417.493 156.037C417.493 154.844 417.697 153.826 418.104 152.983C418.511 152.131 419.079 151.435 419.809 150.895C420.538 150.355 421.385 149.943 422.351 149.659C423.327 149.375 424.378 149.191 425.505 149.105C426.726 149.011 427.706 148.897 428.445 148.764C429.193 148.622 429.733 148.428 430.064 148.182C430.396 147.926 430.561 147.59 430.561 147.174V147.117C430.561 146.549 430.344 146.113 429.908 145.81C429.472 145.507 428.914 145.355 428.232 145.355C427.484 145.355 426.873 145.521 426.4 145.853C425.936 146.174 425.656 146.672 425.561 147.344H418.346C418.44 146.018 418.862 144.797 419.61 143.679C420.367 142.552 421.471 141.653 422.919 140.98C424.368 140.299 426.177 139.958 428.346 139.958C429.908 139.958 431.31 140.142 432.55 140.512C433.791 140.871 434.847 141.378 435.718 142.031C436.589 142.675 437.252 143.433 437.706 144.304C438.17 145.166 438.402 146.103 438.402 147.117V162.06H431.073V158.992H430.902C430.467 159.806 429.936 160.464 429.311 160.966C428.696 161.468 427.99 161.833 427.195 162.06C426.409 162.287 425.543 162.401 424.596 162.401ZM427.152 157.458C427.749 157.458 428.308 157.335 428.829 157.088C429.359 156.842 429.79 156.487 430.121 156.023C430.453 155.559 430.618 154.995 430.618 154.333V152.514C430.41 152.6 430.187 152.68 429.951 152.756C429.723 152.832 429.477 152.903 429.212 152.969C428.956 153.035 428.682 153.097 428.388 153.154C428.104 153.21 427.806 153.263 427.493 153.31C426.887 153.405 426.39 153.561 426.002 153.779C425.623 153.987 425.339 154.247 425.15 154.56C424.97 154.863 424.88 155.204 424.88 155.583C424.88 156.189 425.093 156.653 425.519 156.975C425.945 157.297 426.489 157.458 427.152 157.458Z" fill="#465350"/>
<path d="M135.842 162.06H127.319L136.922 132.969H147.717L157.319 162.06H148.797L142.433 140.98H142.206L135.842 162.06ZM134.251 150.583H150.274V156.492H134.251V150.583Z" fill="#1E1E1E"/>
<path d="M497.37 29.4768C498.558 45.4414 485.977 59.3426 469.216 60.4827C452.455 61.6228 437.94 49.5648 436.751 33.6001C435.562 17.6355 448.144 3.73432 464.905 2.59423C481.665 1.45415 496.181 13.5122 497.37 29.4768Z" fill="white" stroke="#4EAA40"/>
<path fill-rule="evenodd" clip-rule="evenodd" d="M476.302 25.0823C476.919 26.6067 477.363 28.1629 477.509 29.776C477.69 31.7771 477.607 33.764 477.113 35.7323C477.1 35.7865 477.072 35.8374 477.05 35.8899C476.895 35.8902 476.737 35.8738 476.586 35.8938C475.306 36.0655 474.028 36.2435 472.749 36.4205C471.427 36.6033 470.104 36.779 468.784 36.9743C468.317 37.0433 467.738 36.9609 467.549 37.5131C467.544 37.5282 467.49 37.5308 467.459 37.5394L467.523 34.2394C467.501 31.5853 467.479 28.9312 467.458 26.2771L468.074 26.1868C469.081 26.0459 470.088 25.9031 471.096 25.7662C472.299 25.603 473.503 25.4445 474.707 25.2852C475.238 25.2146 475.769 25.15 476.302 25.0823Z" fill="#439934"/>
<path fill-rule="evenodd" clip-rule="evenodd" d="M466.187 47.1591C465.538 46.682 464.865 46.226 464.242 45.7243C460.891 43.0249 458.44 39.8478 457.233 36.0173C456.9 34.9631 456.679 33.8918 456.608 32.8024C456.558 32.04 456.485 31.2708 456.548 30.5124C456.716 28.4952 457.058 26.4974 457.75 24.5544L457.789 24.5091C457.856 24.5856 457.953 24.6532 457.987 24.7396C458.663 26.4403 459.334 28.1423 460.002 29.8452C462.1 35.1968 464.196 40.5497 466.298 45.9C466.339 46.0044 466.445 46.0901 466.522 46.1843L466.187 47.1591Z" fill="#45A538"/>
<path fill-rule="evenodd" clip-rule="evenodd" d="M476.302 25.0823C475.769 25.15 475.237 25.2146 474.706 25.2846C473.503 25.4438 472.299 25.6024 471.096 25.7656C470.088 25.9025 469.081 26.0453 468.073 26.1861L467.458 26.2764L467.453 25.9333C467.433 25.6513 467.398 25.3696 467.394 25.0876C467.367 23.2891 467.351 21.4905 467.325 19.692C467.308 18.5662 467.284 17.4407 467.257 16.3153C467.241 15.6159 467.223 14.9163 467.186 14.218C467.166 13.8427 467.095 13.4694 467.067 13.0941C467.05 12.8784 467.073 12.6611 467.078 12.4444C467.392 12.9641 467.699 13.4878 468.022 14.0036C468.532 14.8191 469.345 15.4199 470.076 16.0756C472.968 18.6667 475.022 21.6793 476.302 25.0823Z" fill="#46A037"/>
<path fill-rule="evenodd" clip-rule="evenodd" d="M467.459 37.539C467.49 37.5305 467.544 37.5279 467.549 37.5128C467.738 36.9605 468.316 37.043 468.784 36.974C470.103 36.779 471.427 36.603 472.749 36.4201C474.027 36.2432 475.306 36.0652 476.586 35.8935C476.737 35.8732 476.895 35.8899 477.05 35.8896C476.811 36.6184 476.623 37.3631 476.319 38.0719C475.975 38.876 475.558 39.6606 475.116 40.4299C474.454 41.58 473.63 42.6526 472.673 43.6352C471.935 44.393 471.113 45.0933 470.289 45.7851C469.833 46.1676 469.296 46.4791 468.797 46.8229L468.667 46.7474L468.2 46.4066L467.717 45.5027C467.385 44.4446 467.21 43.3673 467.181 42.2727L467.19 42.0885L467.256 41.292C467.278 41.0202 467.307 40.7487 467.321 40.4762C467.37 39.4971 467.413 38.5181 467.459 37.539Z" fill="#409433"/>
<path fill-rule="evenodd" clip-rule="evenodd" d="M467.459 37.539C467.413 38.5181 467.37 39.4971 467.321 40.4765C467.308 40.749 467.279 41.0205 467.257 41.2924L466.963 41.3873C466.31 39.745 465.656 38.1202 465.017 36.491C463.96 33.7959 462.915 31.0965 461.859 28.4006C461.007 26.2246 460.148 24.0508 459.284 21.878C459.243 21.7762 459.127 21.6967 459.046 21.6068L460.929 18.6512C460.993 18.7471 461.079 18.8367 461.119 18.9398C461.99 21.1406 462.859 23.3416 463.721 25.5449C464.842 28.4111 465.956 31.2797 467.077 34.1462C467.121 34.2608 467.195 34.3665 467.265 34.4949L467.523 34.2388C467.501 35.339 467.48 36.4388 467.459 37.539Z" fill="#4FAA41"/>
<path fill-rule="evenodd" clip-rule="evenodd" d="M459.047 21.6071C459.128 21.697 459.243 21.7765 459.284 21.8783C460.148 24.0511 461.007 26.2249 461.86 28.401C462.915 31.0968 463.96 33.7962 465.017 36.4914C465.656 38.1202 466.31 39.7453 466.963 41.3876L467.257 41.2927L467.191 42.0892L467.132 42.2727C467.03 43.1447 466.944 44.0187 466.819 44.8888C466.756 45.3248 466.623 45.7529 466.522 46.1846C466.446 46.0904 466.339 46.0047 466.298 45.9003C464.196 40.5497 462.101 35.1971 460.003 29.8456C459.335 28.1426 458.664 26.4406 457.987 24.7399C457.953 24.6535 457.857 24.5859 457.789 24.5094C458.208 23.5419 458.627 22.5743 459.047 21.6071Z" fill="#4AA73C"/>
<path fill-rule="evenodd" clip-rule="evenodd" d="M467.522 34.2391L467.265 34.4952C467.195 34.3668 467.121 34.2608 467.076 34.1465C465.956 31.28 464.842 28.4115 463.721 25.5453C462.859 23.3419 461.99 21.1409 461.119 18.9402C461.079 18.8371 460.993 18.7471 460.928 18.6516L463.256 16.0365C463.329 16.1203 463.434 16.1948 463.472 16.289C464.118 17.9047 464.759 19.5223 465.395 21.1409C465.99 22.6525 466.576 24.1663 467.178 25.6759C467.218 25.7771 467.358 25.8486 467.452 25.934L467.457 26.2771C467.479 28.9306 467.501 31.585 467.522 34.2391Z" fill="#57AE47"/>
<path fill-rule="evenodd" clip-rule="evenodd" d="M467.453 25.9333C467.359 25.848 467.219 25.7764 467.178 25.6753C466.577 24.1657 465.991 22.6518 465.396 21.1402C464.76 19.5216 464.119 17.9043 463.473 16.2883C463.435 16.1941 463.33 16.1196 463.257 16.0359C464.014 15.4029 464.747 14.7472 465.535 14.1434C466.235 13.607 466.797 13.0318 466.823 12.184C466.824 12.1489 466.846 12.1138 466.879 12.0153L467.078 12.4441C467.073 12.6611 467.051 12.8781 467.067 13.0938C467.096 13.4691 467.167 13.8424 467.187 14.2176C467.224 14.916 467.241 15.6156 467.258 16.3149C467.285 17.4404 467.309 18.5659 467.325 19.6917C467.351 21.4902 467.368 23.2887 467.394 25.0873C467.398 25.3699 467.432 25.6513 467.453 25.9333Z" fill="#60B24F"/>
<path fill-rule="evenodd" clip-rule="evenodd" d="M466.521 46.1843C466.623 45.7526 466.756 45.3241 466.818 44.8884C466.943 44.0187 467.029 43.1444 467.131 42.2724L467.157 42.2691L467.182 42.2727C467.211 43.3673 467.385 44.4446 467.718 45.5027C467.65 45.5789 467.554 45.6469 467.519 45.7329C467.239 46.4059 466.976 47.0842 466.695 47.7573C466.656 47.8492 466.549 47.9208 466.474 48.0015L466.187 47.1591L466.521 46.1843Z" fill="#A9AA88"/>
<path fill-rule="evenodd" clip-rule="evenodd" d="M466.475 48.0019C466.55 47.9211 466.657 47.8495 466.695 47.7576C466.976 47.0846 467.24 46.4066 467.519 45.7332C467.555 45.6472 467.65 45.5792 467.718 45.5031L468.201 46.4072C468.105 46.5228 467.974 46.6269 467.921 46.7556L466.997 49.0732C466.959 49.1661 466.829 49.2318 466.742 49.3102L466.475 48.0019Z" fill="#B6B598"/>
<path fill-rule="evenodd" clip-rule="evenodd" d="M466.742 49.3099C466.829 49.2318 466.959 49.1658 466.997 49.0728L467.921 46.7553C467.973 46.6269 468.105 46.5225 468.201 46.4069L468.668 46.7474C468.442 46.9378 468.317 47.1578 468.392 47.4359L468.25 47.8325C468.186 47.9004 468.092 47.9595 468.06 48.0373C467.738 48.8263 467.43 49.6195 467.105 50.4084C467.064 50.5086 466.95 50.587 466.869 50.675C466.827 50.2197 466.784 49.7653 466.742 49.3099Z" fill="#C2C1A7"/>
<path fill-rule="evenodd" clip-rule="evenodd" d="M466.869 50.675C466.95 50.5867 467.064 50.5082 467.105 50.4084C467.43 49.6198 467.738 48.8266 468.061 48.0373C468.093 47.9598 468.186 47.9004 468.251 47.8325L468.055 49.653C468.003 49.7045 467.927 49.7495 467.902 49.8096C467.681 50.3395 467.473 50.8733 467.251 51.4032C467.205 51.5126 467.117 51.6091 467.049 51.7112C466.988 51.6432 466.879 51.5776 466.874 51.5067C466.855 51.2305 466.868 50.9525 466.869 50.675Z" fill="#CECDB7"/>
<path fill-rule="evenodd" clip-rule="evenodd" d="M467.048 51.7112C467.117 51.6088 467.205 51.5122 467.25 51.4032C467.473 50.8737 467.681 50.3398 467.902 49.8096C467.927 49.7495 468.003 49.7049 468.055 49.653L468.059 50.8481L467.591 51.8737L467.048 51.7112Z" fill="#DBDAC7"/>
<path fill-rule="evenodd" clip-rule="evenodd" d="M467.591 51.8741L468.059 50.8484L468.156 52.0619L467.591 51.8741Z" fill="#EBE9DC"/>
<path fill-rule="evenodd" clip-rule="evenodd" d="M468.392 47.4362C468.317 47.1581 468.442 46.9378 468.668 46.7477L468.797 46.8232L468.392 47.4362Z" fill="#CECDB7"/>
<path fill-rule="evenodd" clip-rule="evenodd" d="M467.182 42.2731L467.157 42.2695L467.131 42.2727L467.191 42.0892L467.182 42.2731Z" fill="#4FAA41"/>
<path d="M441.605 228.834L418.116 197.474L450.075 191.127L441.605 228.834Z" fill="#D9D9D9"/>
<defs>
<clipPath id="clip0_103_91">
<rect width="30.3624" height="29.017" fill="white" transform="translate(55.0738 219.149)"/>
</clipPath>
</defs>
</svg>
