<svg width="121" height="115" viewBox="0 0 121 115" fill="none" xmlns="http://www.w3.org/2000/svg">
<path d="M119.601 57.3543C119.601 88.5558 93.1275 113.888 60.4229 113.888C27.7182 113.888 1.245 88.5558 1.245 57.3543C1.245 26.1528 27.7182 0.820801 60.4229 0.820801C93.1275 0.820801 119.601 26.1528 119.601 57.3543Z" fill="white" stroke="#E0234E"/>
<g clip-path="url(#clip0_103_80)">
<path d="M67.6756 18.3314C67.085 18.3314 66.5367 18.4528 66.0305 18.6147C67.1061 19.3026 67.6966 20.2132 67.9919 21.2452C68.0131 21.3868 68.0552 21.488 68.0763 21.6296C68.0975 21.751 68.1185 21.8724 68.1185 21.9938C68.2029 23.7745 67.6334 23.997 67.2327 25.0492C66.6211 26.405 66.7898 27.8618 67.5279 29.0354C67.5912 29.1771 67.6756 29.339 67.781 29.4806C66.9796 24.3613 71.4296 23.5924 72.2521 21.9938C72.3153 20.5977 71.1132 19.6669 70.1642 19.0194C69.2573 18.4933 68.4348 18.3314 67.6756 18.3314ZM74.3822 19.4848C74.2978 19.9501 74.361 19.8287 74.34 20.0716C74.3189 20.2334 74.3189 20.4358 74.2979 20.5977C74.2557 20.7595 74.2135 20.9214 74.1502 21.0833C74.1081 21.2452 74.0448 21.407 73.9815 21.5689C73.8971 21.7308 73.8339 21.8724 73.7495 22.0343C73.6863 22.1153 73.6441 22.1962 73.5808 22.2771C73.5387 22.3378 73.4964 22.3985 73.4543 22.4592C73.3488 22.6009 73.2434 22.7425 73.1379 22.8639C73.0114 22.9853 72.9059 23.127 72.7583 23.2281V23.2484C72.6318 23.3496 72.5052 23.471 72.3576 23.5722C71.9147 23.8959 71.4086 24.1387 70.9446 24.4422C70.7969 24.5434 70.6493 24.6244 70.5228 24.7458C70.3751 24.8469 70.2486 24.9481 70.1221 25.0695C69.9744 25.1909 69.869 25.3123 69.7424 25.454C69.637 25.5754 69.5105 25.717 69.4261 25.8587C69.3206 26.0003 69.2152 26.1419 69.1308 26.2836C69.0464 26.4454 68.9832 26.5871 68.8988 26.749C68.8356 26.9108 68.7723 27.0525 68.7301 27.2144C68.6669 27.3965 68.6247 27.5583 68.5825 27.7202C68.5614 27.8012 68.5614 27.9023 68.5403 27.9833C68.5192 28.0642 68.5192 28.1451 68.4982 28.2261C68.4982 28.388 68.4771 28.5701 68.4771 28.7319C68.4771 28.8534 68.4771 28.9748 68.4982 29.0962C68.4982 29.258 68.5193 29.4199 68.5615 29.602C68.5826 29.7639 68.6247 29.9258 68.6669 30.0877C68.7302 30.2495 68.7724 30.4114 68.8356 30.5733C68.8778 30.6745 68.9411 30.7756 68.9833 30.8566L64.1326 29.0557C63.3101 28.8331 62.5087 28.6308 61.6861 28.4487C61.2433 28.3475 60.8004 28.2463 60.3575 28.1451C59.0921 27.9023 57.8056 27.7202 56.5191 27.5988C56.477 27.5988 56.4558 27.5786 56.4137 27.5786C55.1483 27.4572 53.904 27.3965 52.6386 27.3965C51.7106 27.3965 50.7826 27.4369 49.8758 27.4976C48.5893 27.5786 47.3028 27.7404 46.0163 27.9428C45.6999 27.9832 45.3836 28.044 45.0672 28.1047C44.4135 28.2261 43.7808 28.3677 43.1692 28.5093C42.8528 28.5903 42.5365 28.6712 42.2201 28.7522C41.9038 28.8736 41.6085 29.0152 41.3132 29.1366C41.0812 29.2378 40.8493 29.339 40.6173 29.4401C40.5751 29.4604 40.5329 29.4604 40.5118 29.4806C40.3009 29.5817 40.1111 29.6627 39.9213 29.7639C39.858 29.7841 39.8158 29.8043 39.7737 29.8246C39.5417 29.9257 39.3097 30.0471 39.1199 30.1483C38.9722 30.209 38.8246 30.29 38.6981 30.3507C38.6348 30.3911 38.5504 30.4316 38.5083 30.4518C38.3185 30.553 38.1287 30.6542 37.9599 30.7553C37.7701 30.8565 37.6014 30.9577 37.4538 31.0589C37.3061 31.16 37.1585 31.241 37.032 31.3421C37.0108 31.3624 36.9898 31.3624 36.9687 31.3826C36.8422 31.4635 36.6945 31.5647 36.568 31.6659C36.568 31.6659 36.5469 31.6861 36.5258 31.7063C36.4204 31.7873 36.3149 31.8682 36.2095 31.9491C36.1673 31.9694 36.1251 32.0098 36.083 32.0301C35.9775 32.1111 35.8721 32.2122 35.7666 32.2931C35.7455 32.3336 35.7033 32.3538 35.6822 32.3741C35.5557 32.4955 35.4291 32.5967 35.3026 32.7181C35.2815 32.7181 35.2815 32.7384 35.2605 32.7585C35.1339 32.8597 35.0074 32.9811 34.8808 33.1025C34.8597 33.1228 34.8597 33.143 34.8387 33.143C34.7332 33.2441 34.6278 33.3453 34.5223 33.4667C34.4802 33.5071 34.4169 33.5477 34.3747 33.5881C34.2693 33.7095 34.1427 33.8309 34.0162 33.9523C33.9951 33.9928 33.9529 34.013 33.9318 34.0535C33.7631 34.2154 33.6154 34.3773 33.4467 34.5391C33.4256 34.5594 33.4046 34.5796 33.3834 34.5998C33.046 34.9438 32.6875 35.2878 32.3079 35.5913C31.9282 35.9151 31.5275 36.2186 31.1268 36.4816C30.705 36.7649 30.3043 37.0077 29.8614 37.2506C29.4396 37.4731 28.9967 37.6755 28.5328 37.8576C28.0899 38.0397 27.6259 38.2016 27.1619 38.3432C26.2761 38.5253 25.3693 38.8693 24.5889 38.93C24.4202 38.93 24.2304 38.9705 24.0617 38.9907C23.8719 39.0312 23.7031 39.0717 23.5344 39.1121C23.3657 39.1728 23.197 39.2335 23.0283 39.2942C22.8596 39.3549 22.6908 39.4359 22.5221 39.5168C22.3745 39.618 22.2058 39.6989 22.0581 39.8001C21.9105 39.9013 21.7629 40.0227 21.6363 40.1441C21.4887 40.2453 21.3411 40.3869 21.2145 40.5083C21.088 40.65 20.9615 40.7714 20.856 40.913C20.7506 41.0749 20.624 41.2165 20.5397 41.3784C20.4342 41.52 20.3288 41.6819 20.2444 41.8438C20.16 42.0259 20.0757 42.1878 20.0124 42.3699C19.9491 42.5318 19.8859 42.7139 19.8226 42.896C19.7804 43.0578 19.7382 43.2197 19.7171 43.3816C19.7171 43.4019 19.696 43.422 19.696 43.4423C19.6539 43.6244 19.6539 43.8672 19.6328 43.9887C19.6116 44.1303 19.5906 44.2517 19.5906 44.3933C19.5906 44.4743 19.5906 44.5754 19.6117 44.6564C19.6329 44.798 19.6539 44.9194 19.6961 45.0408C19.7383 45.1622 19.7805 45.2836 19.8437 45.4051V45.4253C19.907 45.5467 19.9914 45.6681 20.0757 45.7895C20.1601 45.911 20.2445 46.0324 20.3499 46.1538C20.4554 46.2549 20.5819 46.3763 20.7084 46.4775C20.835 46.5989 20.9615 46.7001 21.1091 46.8013C21.6153 47.2262 21.7418 47.3678 22.3956 47.6916C22.5011 47.7523 22.6065 47.7928 22.7331 47.8535C22.7542 47.8535 22.7752 47.8737 22.7964 47.8737C22.7964 47.9142 22.7964 47.9344 22.8175 47.9749C22.8386 48.1368 22.8807 48.2987 22.9229 48.4605C22.9651 48.6426 23.0284 48.8045 23.0917 48.9462C23.1549 49.0676 23.1971 49.189 23.2604 49.3104C23.2815 49.3508 23.3025 49.3914 23.3236 49.4116C23.408 49.5734 23.4924 49.7151 23.5767 49.8567C23.6822 49.9984 23.7876 50.14 23.8931 50.2816C23.9985 50.403 24.1251 50.5447 24.2516 50.6661C24.3781 50.7875 24.5047 50.8887 24.6523 51.0101C24.6523 51.0101 24.6734 51.0304 24.6945 51.0304C24.821 51.1315 24.9475 51.2327 25.0741 51.3136C25.2217 51.4148 25.3693 51.4958 25.5381 51.5767C25.6857 51.6577 25.8544 51.7386 26.0231 51.7993C26.1497 51.86 26.2973 51.9005 26.4449 51.9409C26.466 51.9612 26.4871 51.9612 26.5293 51.9814C26.6137 52.0017 26.7191 52.0218 26.8035 52.0421C26.7402 53.1347 26.7191 54.1667 26.8879 54.5309C27.0777 54.9356 28.0056 53.7013 28.9336 52.2849C28.8071 53.6811 28.7227 55.32 28.9336 55.8057C29.1656 56.3115 30.431 54.7332 31.5277 52.9931C46.4804 49.6746 60.1257 59.5895 61.5598 73.5918C61.2856 71.4065 58.4806 70.1924 57.1942 70.4959C56.5615 71.9933 55.4859 73.9155 53.7565 75.1094C53.9041 73.7739 53.8409 72.398 53.5456 71.0625C53.0816 72.9241 52.1747 74.6642 50.9304 76.1616C48.9269 76.3032 46.9233 75.3724 45.8688 73.9763C45.7844 73.9155 45.7634 73.7941 45.7001 73.7132C45.6368 73.5715 45.5736 73.4299 45.5314 73.2883C45.4681 73.1466 45.4259 73.005 45.4049 72.8634C45.3837 72.7217 45.3837 72.5801 45.3837 72.4182C45.3837 72.317 45.3837 72.2159 45.3837 72.1147C45.4049 71.973 45.447 71.8314 45.4892 71.6897C45.5313 71.5481 45.5736 71.4065 45.6368 71.2648C45.7212 71.1232 45.7844 70.9815 45.8899 70.8399C46.2484 69.8686 46.2484 69.0795 45.5946 68.6141C45.4681 68.5331 45.3415 68.4725 45.1939 68.4118C45.1095 68.3915 45.0041 68.3511 44.9197 68.3308C44.8565 68.3105 44.8143 68.2903 44.751 68.2701C44.6034 68.2296 44.4558 68.1891 44.3081 68.1689C44.1605 68.1285 44.0129 68.1082 43.8652 68.1082C43.7176 68.0879 43.5489 68.0678 43.4013 68.0678C43.2958 68.0678 43.1904 68.088 43.0849 68.088C42.9162 68.088 42.7686 68.1083 42.6209 68.1487C42.4733 68.169 42.3257 68.1892 42.1781 68.2297C42.0304 68.2701 41.8828 68.3107 41.7352 68.3714C41.5875 68.4321 41.461 68.4928 41.3134 68.5535C41.1868 68.6142 41.0603 68.6951 40.9127 68.7558C35.9987 71.8314 38.9302 79.0349 42.2835 81.1191C41.0181 81.3417 39.7316 81.6047 39.3731 81.8678C39.352 81.888 39.3309 81.9082 39.3309 81.9082C40.2378 82.4343 41.1869 82.8794 42.1781 83.2639C43.5278 83.6888 44.962 84.0733 45.5947 84.2352V84.2554C47.3451 84.5994 49.1167 84.7208 50.9093 84.6197C60.2522 83.9924 67.9078 77.1733 69.2998 68.1892C69.3419 68.3714 69.3842 68.5332 69.4263 68.7153C69.4896 69.0795 69.574 69.464 69.6161 69.8485V69.8688C69.6583 70.0509 69.6794 70.233 69.7005 70.3948V70.4758C69.7217 70.6579 69.7427 70.84 69.7427 71.0019C69.7638 71.2245 69.7848 71.4471 69.7848 71.6697V71.9934C69.7848 72.0946 69.8059 72.216 69.8059 72.3172C69.8059 72.4386 69.7848 72.56 69.7848 72.6814V72.9647C69.7848 73.1063 69.7637 73.2277 69.7637 73.3694C69.7637 73.4503 69.7637 73.5312 69.7426 73.6324C69.7426 73.7741 69.7214 73.9157 69.7214 74.0776C69.7003 74.1383 69.7003 74.199 69.7003 74.2597C69.6792 74.4215 69.6581 74.5632 69.637 74.7251C69.637 74.7858 69.637 74.8465 69.6159 74.9072C69.5948 75.1095 69.5526 75.2916 69.5315 75.494V75.5143V75.5345C69.4894 75.7166 69.4471 75.919 69.405 76.1011V76.1618C69.3628 76.3439 69.3206 76.526 69.2784 76.7081C69.2784 76.7284 69.2573 76.7688 69.2573 76.7891C69.2152 76.9712 69.1729 77.1533 69.1097 77.3354V77.3961C69.0464 77.5985 68.9832 77.7806 68.941 77.9627C68.9199 77.9829 68.9198 78.0031 68.9198 78.0031C68.8566 78.2055 68.7933 78.4078 68.73 78.6102C68.6457 78.8125 68.5824 78.9946 68.4981 79.197C68.4137 79.3993 68.3504 79.6017 68.2661 79.7838C68.1817 79.9861 68.0973 80.1682 68.013 80.3706H67.9918C67.9074 80.5527 67.8231 80.755 67.7177 80.9371C67.6965 80.9978 67.6755 81.0383 67.6544 81.0788C67.6333 81.0991 67.6333 81.1192 67.6122 81.1395C66.2414 83.7902 64.2168 86.1172 61.686 87.9383C61.5173 88.0394 61.3485 88.1608 61.1798 88.2822C61.1377 88.3227 61.0744 88.343 61.0322 88.3834C60.8845 88.4846 60.7369 88.5858 60.5682 88.6869L60.6315 88.8083H60.6526C60.9478 88.7679 61.2431 88.7274 61.5384 88.6869H61.5595C62.1078 88.606 62.6562 88.5048 63.2045 88.4037C63.3521 88.3834 63.5209 88.343 63.6685 88.3025C63.7739 88.2822 63.8583 88.262 63.9637 88.2418C64.1114 88.2215 64.259 88.1811 64.4066 88.1608C64.5332 88.1204 64.6597 88.1001 64.7863 88.0596C66.8952 87.574 68.941 86.9063 70.9023 86.1171C67.549 90.508 63.0569 94.049 57.8055 96.376C60.2308 96.2141 62.6562 95.8297 64.9971 95.1822C73.4964 92.7743 80.6459 87.2907 84.9272 79.9051C84.0625 84.5793 82.1222 89.0309 79.254 92.9159C81.2997 91.6209 83.1767 90.1235 84.885 88.4239C89.6091 83.689 92.7094 77.6793 93.7639 71.2245C94.4809 74.4216 94.6918 77.7198 94.3755 80.9776C109.602 60.6014 95.6409 39.4766 89.799 33.9121C89.7778 33.8717 89.7568 33.8514 89.7568 33.811C89.7356 33.8312 89.7356 33.8312 89.7356 33.8514C89.7356 33.8311 89.7356 33.8311 89.7145 33.811C89.7145 34.0538 89.6934 34.2966 89.6724 34.5394C89.6091 35.0048 89.5459 35.4499 89.4615 35.8951C89.356 36.3403 89.2295 36.7854 89.103 37.2306C88.9553 37.6555 88.7866 38.1007 88.5968 38.5256C88.407 38.9303 88.1961 39.3552 87.9641 39.7599C87.7321 40.1444 87.479 40.549 87.2049 40.9133C86.9307 41.2977 86.6354 41.6619 86.3402 42.0059C86.0238 42.3701 85.6864 42.6939 85.3489 43.0176C85.138 43.1998 84.9482 43.3616 84.7373 43.5235C84.5686 43.6652 84.421 43.7866 84.2523 43.9282C83.8726 44.2115 83.493 44.4745 83.0712 44.7173C82.6705 44.9602 82.2487 45.203 81.8269 45.4053C81.384 45.6077 80.9411 45.7898 80.4983 45.9719C80.0554 46.1338 79.5914 46.2754 79.1274 46.3968C78.6634 46.5182 78.1784 46.6194 77.7144 46.7003C77.2293 46.7813 76.7442 46.8217 76.2803 46.8622C75.9428 46.8825 75.6054 46.9026 75.2679 46.9026C74.7829 46.9026 74.2978 46.8622 73.8338 46.8217C73.3488 46.7812 72.8637 46.7205 72.3997 46.6193C71.9146 46.5383 71.4507 46.417 70.9867 46.2753H70.9656C71.4295 46.2349 71.8935 46.1944 72.3575 46.1135C72.8426 46.0325 73.3065 45.9314 73.7705 45.8099C74.2345 45.6885 74.6985 45.5469 75.1414 45.385C75.6054 45.2231 76.0482 45.0208 76.47 44.8184C76.9129 44.6161 77.3136 44.3935 77.7354 44.1507C78.1361 43.8877 78.5369 43.6246 78.9165 43.3413C79.2961 43.0581 79.6546 42.7545 79.9921 42.4308C80.3506 42.1273 80.6669 41.7833 80.9833 41.4393C81.2996 41.0751 81.5949 40.7109 81.8691 40.3466C81.9112 40.2859 81.9535 40.205 81.9956 40.1443C82.2065 39.8205 82.4174 39.4968 82.6072 39.173C82.8392 38.7683 83.0501 38.3636 83.2399 37.9387C83.4297 37.5138 83.5984 37.0889 83.7461 36.6437C83.8937 36.2188 83.9992 35.7736 84.1046 35.3285C84.189 34.8631 84.2733 34.4179 84.3155 33.9728C84.3577 33.5074 84.3999 33.042 84.3999 32.5968C84.3999 32.2731 84.3787 31.9493 84.3578 31.6256C84.3156 31.1602 84.2523 30.715 84.189 30.2699C84.1046 29.8045 83.9992 29.3593 83.8727 28.9141C83.7251 28.4892 83.5774 28.0441 83.4087 27.6191C83.24 27.1942 83.0291 26.7693 82.8182 26.3646C82.5862 25.9599 82.3542 25.5552 82.1011 25.1708C81.827 24.7863 81.5528 24.4221 81.2575 24.0579C80.9412 23.7139 80.6248 23.3699 80.2874 23.0259C80.1187 22.864 79.9289 22.6819 79.7391 22.52C78.79 21.8118 77.7988 21.1441 76.8075 20.5371C76.6599 20.4561 76.5334 20.3954 76.3857 20.3347C75.6898 19.9098 75.0359 19.6871 74.3822 19.4848Z" fill="#E0234E"/>
</g>
<defs>
<clipPath id="clip0_103_80">
<rect width="81.6644" height="78.0458" fill="white" transform="translate(19.5906 18.3314)"/>
</clipPath>
</defs>
</svg>
