<svg width="74" height="74" viewBox="0 0 74 74" fill="none" xmlns="http://www.w3.org/2000/svg">
<path d="M72.9027 37.1845C72.9027 57.2432 56.7181 73.5001 36.7584 73.5001C16.7986 73.5001 0.614075 57.2432 0.614075 37.1845C0.614075 17.1258 16.7986 0.869019 36.7584 0.869019C56.7181 0.869019 72.9027 17.1258 72.9027 37.1845Z" fill="white" stroke="#0C344B"/>
<path fill-rule="evenodd" clip-rule="evenodd" d="M48.8199 46.8065L33.3287 51.4465C33.2208 51.4794 33.1062 51.4836 32.9962 51.4587C32.8862 51.4338 32.7844 51.3806 32.701 51.3044C32.6175 51.2282 32.5551 51.1316 32.5199 51.0239C32.4847 50.9163 32.4779 50.8013 32.5002 50.6902L38.0353 23.8448C38.0587 23.7352 38.1158 23.6356 38.1984 23.5602C38.281 23.4848 38.385 23.4373 38.4959 23.4243C38.6068 23.4114 38.719 23.4337 38.8166 23.4881C38.9142 23.5424 38.9924 23.6262 39.0402 23.7275L49.287 45.7682C49.3329 45.8662 49.3572 45.973 49.358 46.0813C49.3589 46.1897 49.3363 46.2969 49.2919 46.3956C49.2475 46.4943 49.1823 46.5822 49.1008 46.6531C49.0193 46.724 48.9235 46.7764 48.8199 46.8065ZM51.4769 45.7108L39.6154 20.1907C39.4696 19.876 39.2412 19.6071 38.9547 19.4129C38.6682 19.2188 38.3345 19.1067 37.9894 19.0888C37.6442 19.0649 37.2992 19.1372 36.9924 19.2978C36.6855 19.4583 36.4288 19.7008 36.2503 19.9986L23.3875 41.1132C23.1913 41.4328 23.0893 41.8017 23.0932 42.1772C23.0972 42.5527 23.207 42.9194 23.4099 43.2348L29.7003 53.1051C29.9373 53.4739 30.2869 53.7557 30.6967 53.9083C31.1065 54.0608 31.5545 54.0759 31.9735 53.9512L50.2335 48.4813C50.5093 48.4006 50.7644 48.2608 50.9812 48.0715C51.1981 47.8822 51.3715 47.648 51.4896 47.3849C51.6076 47.1218 51.6675 46.8361 51.6651 46.5475C51.6627 46.259 51.5981 45.9743 51.4757 45.7133L51.4769 45.7108Z" fill="#0C344B"/>
</svg>
