<svg width="121" height="115" viewBox="0 0 121 115" fill="none" xmlns="http://www.w3.org/2000/svg">
<path d="M119.628 57.0558C119.628 88.2573 93.1543 113.589 60.4496 113.589C27.745 113.589 1.27179 88.2573 1.27179 57.0558C1.27179 25.8543 27.745 0.522324 60.4496 0.522324C93.1543 0.522324 119.628 25.8543 119.628 57.0558Z" fill="white" stroke="#00D8FF"/>
<g clip-path="url(#clip0_103_78)">
<path d="M88.6348 43.1269C87.7442 42.81 86.8214 42.5101 85.8712 42.2265C86.0273 41.5676 86.1707 40.9172 86.2981 40.2779C88.3902 29.7796 87.0223 21.3221 82.3515 18.5375C77.8728 15.8675 70.5481 18.6514 63.1506 25.3068C62.4393 25.9468 61.7259 26.6244 61.0129 27.3345C60.5378 26.8647 60.0634 26.4106 59.5903 25.9763C51.8375 18.8599 44.0665 15.861 39.4003 18.6536C34.9258 21.3314 33.6007 29.2822 35.4839 39.2315C35.6657 40.1925 35.8783 41.1739 36.1187 42.1717C35.0189 42.4945 33.9571 42.8386 32.9412 43.2046C23.8518 46.4806 18.047 51.615 18.047 56.9407C18.047 62.4411 24.2785 67.9581 33.7458 71.3034C34.4929 71.5674 35.2681 71.817 36.067 72.0539C35.8077 73.1331 35.5821 74.1906 35.3928 75.2221C33.5972 84.9987 34.9995 92.7617 39.462 95.4226C44.0714 98.1705 51.8072 95.346 59.34 88.5389C59.9354 88.0008 60.5329 87.4302 61.1315 86.8321C61.9073 87.6044 62.6819 88.3354 63.4524 89.0211C70.7488 95.512 77.9551 98.1331 82.4135 95.4648C87.0183 92.709 88.5149 84.3696 86.572 74.2235C86.4236 73.4486 86.2509 72.6569 86.057 71.8512C86.6002 71.6852 87.1336 71.5138 87.6536 71.3356C97.4957 67.9644 103.899 62.5146 103.899 56.9407C103.899 51.5957 97.9072 46.4268 88.6348 43.1269ZM86.5001 67.7366C86.0307 67.8973 85.549 68.0526 85.0582 68.2032C83.9716 64.6472 82.5052 60.8659 80.7107 56.9592C82.4232 53.1455 83.8329 49.4126 84.889 45.8797C85.7672 46.1424 86.6196 46.4195 87.441 46.7119C95.3856 49.5393 100.232 53.7196 100.232 56.9407C100.232 60.3717 94.9981 64.8257 86.5001 67.7366ZM82.9741 74.9598C83.8332 79.4463 83.9559 83.5026 83.3868 86.6736C82.8755 89.523 81.8472 91.4227 80.5758 92.1835C77.8702 93.8025 72.0842 91.698 65.8443 86.1469C65.129 85.5106 64.4084 84.8311 63.6856 84.112C66.1047 81.3769 68.5224 78.1972 70.882 74.6658C75.0324 74.2851 78.9535 73.6626 82.5094 72.8129C82.6845 73.5432 82.84 74.2595 82.9741 74.9598ZM47.316 91.9037C44.6726 92.8688 42.5672 92.8965 41.2946 92.1379C38.5865 90.5231 37.4607 84.2902 38.9964 75.9292C39.1723 74.9717 39.3816 73.9881 39.6229 72.9827C43.1398 73.7867 47.0322 74.3652 51.1925 74.7139C53.568 78.1694 56.0555 81.3456 58.5623 84.1267C58.0146 84.6733 57.4691 85.1937 56.9266 85.684C53.5956 88.694 50.2577 90.8296 47.316 91.9037ZM34.9319 67.7156C30.7457 66.2365 27.2885 64.314 24.9188 62.2162C22.7895 60.331 21.7144 58.4594 21.7144 56.9407C21.7144 53.7089 26.3751 49.5867 34.1484 46.7849C35.0916 46.4449 36.079 46.1246 37.1036 45.8236C38.1779 49.4363 39.5872 53.2135 41.2878 57.033C39.5651 60.9092 38.1359 64.7465 37.051 68.4016C36.3206 68.1845 35.6129 67.9561 34.9319 67.7156ZM39.0832 38.5034C37.4697 29.9791 38.5413 23.5486 41.2377 21.935C44.1099 20.216 50.4611 22.667 57.155 28.8116C57.5829 29.2044 58.0125 29.6154 58.4433 30.0407C55.9489 32.8096 53.4841 35.962 51.1297 39.3971C47.0919 39.784 43.2269 40.4055 39.6733 41.2377C39.4499 40.3087 39.252 39.3958 39.0832 38.5034ZM76.116 47.9568C75.2665 46.4399 74.3944 44.9588 73.5053 43.5182C76.2445 43.8762 78.869 44.3514 81.3336 44.9329C80.5936 47.3845 79.6714 49.9477 78.5858 52.5754C77.807 51.0469 76.9834 49.5058 76.116 47.9568ZM61.0141 32.7504C62.7058 34.6451 64.3999 36.7604 66.0662 39.0556C64.387 38.9736 62.6871 38.9309 60.9731 38.9309C59.2754 38.9309 57.588 38.9726 55.9192 39.0532C57.5872 36.7794 59.296 34.6669 61.0141 32.7504ZM45.8155 47.983C44.9669 49.5042 44.1585 51.037 43.392 52.5725C42.3239 49.954 41.4102 47.3791 40.6639 44.8928C43.1134 44.3261 45.7255 43.8628 48.4473 43.5116C47.5457 44.9655 46.6664 46.4577 45.8155 47.983ZM48.5257 70.6403C45.7135 70.316 43.0622 69.8765 40.6133 69.3255C41.3716 66.7948 42.3054 64.1649 43.3961 61.4899C44.1646 63.0244 44.9762 64.5578 45.83 66.0823C46.6997 67.6354 47.6008 69.1567 48.5257 70.6403ZM61.1156 81.3983C59.3773 79.4594 57.6434 77.3147 55.9501 75.0077C57.5939 75.0744 59.2699 75.1085 60.9731 75.1085C62.723 75.1085 64.4529 75.0677 66.1556 74.9894C64.4838 77.3379 62.7958 79.486 61.1156 81.3983ZM78.6208 61.3536C79.7683 64.0574 80.7356 66.6736 81.5037 69.1611C79.0145 69.7482 76.3269 70.221 73.4952 70.5724C74.3864 69.1123 75.2662 67.6058 76.1307 66.0562C77.0052 64.4884 77.8356 62.9182 78.6208 61.3536ZM72.9538 64.162C71.6117 66.5676 70.2339 68.864 68.8352 71.0316C66.2876 71.22 63.6557 71.317 60.9731 71.317C58.3015 71.317 55.7027 71.2312 53.2002 71.0632C51.745 68.8671 50.3373 66.5639 49.0038 64.1827C47.6739 61.8079 46.4501 59.4131 45.341 57.0317C46.4498 54.6448 47.6707 52.2473 48.993 49.8768L48.9927 49.8772C50.3185 47.5004 51.7139 45.2084 53.1555 43.0261C55.7088 42.8266 58.327 42.7224 60.973 42.7224C63.6309 42.7224 66.2526 42.8273 68.8051 43.0286C70.2248 45.195 71.6107 47.4796 72.9417 49.8567C74.2878 52.2605 75.5244 54.6421 76.6427 56.9778C75.5278 59.3537 74.294 61.7593 72.9538 64.162ZM80.5195 21.8222C83.3945 23.5362 84.5125 30.4485 82.7062 39.5126C82.591 40.091 82.4612 40.6801 82.3203 41.2771C78.7585 40.4275 74.8907 39.7952 70.8412 39.4025C68.4822 35.9296 66.0376 32.7724 63.5838 30.039C64.2436 29.3829 64.9023 28.7573 65.5584 28.1669C71.8966 22.4646 77.8205 20.2132 80.5195 21.8222ZM60.9731 49.0153C65.2071 49.0153 68.6395 52.5635 68.6395 56.9407C68.6395 61.3177 65.2071 64.8661 60.9731 64.8661C56.7392 64.8661 53.3068 61.3177 53.3068 56.9407C53.3068 52.5635 56.7392 49.0153 60.9731 49.0153Z" fill="#00D8FF"/>
</g>
<defs>
<clipPath id="clip0_103_78">
<rect width="85.8523" height="79.0464" fill="white" transform="translate(18.047 17.5326)"/>
</clipPath>
</defs>
</svg>
