<svg width="678" height="284" viewBox="0 0 678 284" fill="none" xmlns="http://www.w3.org/2000/svg">
<rect x="5.23492" y="84.1927" width="578.98" height="175.103" rx="33" fill="#D9D9D9"/>
<path d="M74.4348 149.161H66.8508L67.3308 146.889H73.8908L74.4348 149.161ZM70.8188 140.233L66.3708 154.217H63.2668L70.2108 134.057H71.4588L78.4028 154.217H75.2028L70.8188 140.233ZM103.811 154.569C102.723 154.569 101.699 154.367 100.739 153.961C99.8001 153.556 98.9681 152.937 98.2428 152.105C97.5175 151.273 96.9415 150.217 96.5148 148.937C96.1095 147.657 95.9068 146.132 95.9068 144.361C95.9068 142.804 96.0561 141.449 96.3548 140.297C96.6748 139.124 97.1015 138.143 97.6348 137.353C98.1681 136.543 98.7761 135.903 99.4588 135.433C100.141 134.943 100.856 134.591 101.603 134.377C102.349 134.143 103.096 134.025 103.843 134.025C105.336 134.025 106.605 134.377 107.651 135.081C108.717 135.764 109.517 136.713 110.051 137.929L107.907 139.369L107.651 139.529L107.491 139.305C107.533 139.135 107.523 138.975 107.459 138.825C107.416 138.655 107.299 138.431 107.107 138.153C106.637 137.535 106.136 137.119 105.603 136.905C105.069 136.692 104.525 136.585 103.971 136.585C103.288 136.585 102.637 136.756 102.019 137.097C101.421 137.417 100.899 137.897 100.451 138.537C100.003 139.177 99.6508 139.977 99.3948 140.937C99.1388 141.876 99.0108 142.964 99.0108 144.201C99.0108 145.396 99.1281 146.473 99.3628 147.433C99.6188 148.372 99.9601 149.183 100.387 149.865C100.835 150.527 101.347 151.039 101.923 151.401C102.52 151.743 103.16 151.913 103.843 151.913C104.376 151.913 104.867 151.839 105.315 151.689C105.763 151.54 106.179 151.295 106.563 150.953C106.947 150.591 107.288 150.164 107.587 149.673L109.827 151.241C109.123 152.415 108.28 153.268 107.299 153.801C106.317 154.313 105.155 154.569 103.811 154.569ZM118.851 154.569C117.272 154.569 115.928 154.175 114.819 153.385C113.731 152.596 112.909 151.433 112.355 149.897C111.8 148.361 111.523 146.495 111.523 144.297C111.523 142.143 111.8 140.308 112.355 138.793C112.909 137.257 113.731 136.084 114.819 135.273C115.928 134.463 117.272 134.057 118.851 134.057C120.451 134.057 121.795 134.463 122.883 135.273C123.971 136.084 124.792 137.257 125.347 138.793C125.923 140.308 126.211 142.143 126.211 144.297C126.211 146.495 125.923 148.361 125.347 149.897C124.792 151.433 123.971 152.596 122.883 153.385C121.795 154.175 120.451 154.569 118.851 154.569ZM118.851 151.977C119.725 151.977 120.472 151.689 121.091 151.113C121.709 150.537 122.189 149.684 122.531 148.553C122.872 147.401 123.043 145.972 123.043 144.265C123.043 142.665 122.872 141.3 122.531 140.169C122.189 139.039 121.709 138.175 121.091 137.577C120.472 136.959 119.725 136.649 118.851 136.649C117.976 136.649 117.219 136.959 116.579 137.577C115.96 138.175 115.491 139.039 115.171 140.169C114.851 141.3 114.691 142.665 114.691 144.265C114.691 145.972 114.851 147.401 115.171 148.553C115.491 149.684 115.96 150.537 116.579 151.113C117.219 151.689 117.976 151.977 118.851 151.977ZM127.939 154.217V134.281H130.627L134.851 143.625L139.139 134.249H141.795V154.217H139.011V139.913L135.491 147.497H134.019L130.691 139.977V154.217H127.939ZM144.451 154.217V134.281H151.139C152.653 134.281 153.891 134.548 154.851 135.081C155.832 135.593 156.557 136.287 157.027 137.161C157.496 138.036 157.731 138.996 157.731 140.041C157.731 140.831 157.603 141.567 157.347 142.249C157.091 142.932 156.696 143.54 156.163 144.073C155.651 144.585 154.989 144.991 154.179 145.289C153.368 145.567 152.408 145.705 151.299 145.705H147.683V154.217H144.451ZM147.683 143.049H151.043C151.832 143.049 152.472 142.932 152.963 142.697C153.475 142.441 153.859 142.089 154.115 141.641C154.371 141.172 154.499 140.649 154.499 140.073C154.499 139.497 154.371 138.985 154.115 138.537C153.859 138.089 153.475 137.737 152.963 137.481C152.472 137.204 151.843 137.065 151.075 137.065H147.683V143.049ZM166.819 154.601C164.664 154.601 163.011 153.961 161.859 152.681C160.707 151.38 160.131 149.577 160.131 147.273V134.281H163.235H163.555V134.569C163.427 134.697 163.341 134.836 163.299 134.985C163.277 135.135 163.267 135.391 163.267 135.753V147.305C163.267 148.756 163.523 149.908 164.035 150.761C164.568 151.615 165.507 152.041 166.851 152.041C168.216 152.041 169.165 151.615 169.699 150.761C170.232 149.908 170.499 148.724 170.499 147.209V134.281H173.603V147.177C173.603 148.884 173.315 150.281 172.739 151.369C172.163 152.457 171.363 153.268 170.339 153.801C169.336 154.335 168.163 154.601 166.819 154.601ZM181.091 154.217V136.969H175.651V134.249H189.891V136.969H184.195V154.217H181.091ZM192.547 154.217V134.249H205.251V136.873H195.587V142.505H203.555V145.161H195.587V151.593H205.187V154.217H192.547ZM208.355 154.217V134.281H214.563C216.163 134.281 217.464 134.527 218.467 135.017C219.491 135.487 220.237 136.159 220.707 137.033C221.197 137.887 221.443 138.9 221.443 140.073C221.443 140.82 221.283 141.567 220.963 142.313C220.664 143.039 220.216 143.689 219.619 144.265C219.043 144.82 218.36 145.225 217.571 145.481L221.987 154.217H218.627L214.435 145.769H211.587V154.217H208.355ZM211.587 143.113H214.787C215.939 143.113 216.792 142.847 217.347 142.313C217.923 141.759 218.211 141.033 218.211 140.137C218.211 139.583 218.083 139.071 217.827 138.601C217.592 138.132 217.219 137.759 216.707 137.481C216.216 137.204 215.576 137.065 214.787 137.065H211.587V143.113ZM246.627 154.569C245.304 154.569 244.077 154.367 242.947 153.961C241.837 153.556 240.888 152.948 240.099 152.137L241.667 149.481L241.827 149.193L242.083 149.353C242.125 149.503 242.179 149.663 242.243 149.833C242.307 150.004 242.467 150.217 242.723 150.473C243.256 150.879 243.864 151.22 244.547 151.497C245.229 151.753 245.976 151.881 246.787 151.881C247.341 151.881 247.832 151.817 248.259 151.689C248.707 151.54 249.091 151.348 249.411 151.113C249.752 150.857 250.008 150.559 250.179 150.217C250.349 149.855 250.435 149.46 250.435 149.033C250.435 148.735 250.403 148.457 250.339 148.201C250.275 147.924 250.157 147.679 249.987 147.465C249.816 147.231 249.571 146.996 249.251 146.761C248.952 146.527 248.557 146.281 248.067 146.025C247.576 145.748 246.989 145.46 246.307 145.161C244.92 144.564 243.821 143.967 243.011 143.369C242.221 142.751 241.656 142.089 241.315 141.385C240.973 140.66 240.803 139.871 240.803 139.017C240.803 138.036 241.069 137.172 241.603 136.425C242.136 135.657 242.872 135.06 243.811 134.633C244.771 134.185 245.859 133.961 247.075 133.961C247.885 133.961 248.643 134.068 249.347 134.281C250.051 134.473 250.712 134.761 251.331 135.145C251.949 135.508 252.504 135.967 252.995 136.521L251.139 138.697L250.947 138.953L250.723 138.761C250.701 138.591 250.659 138.42 250.595 138.249C250.552 138.079 250.413 137.865 250.179 137.609C249.731 137.204 249.251 136.927 248.739 136.777C248.248 136.628 247.661 136.553 246.979 136.553C246.531 136.553 246.115 136.617 245.731 136.745C245.368 136.852 245.048 137.023 244.771 137.257C244.515 137.471 244.312 137.716 244.163 137.993C244.035 138.271 243.971 138.569 243.971 138.889C243.971 139.188 244.003 139.455 244.067 139.689C244.131 139.924 244.248 140.159 244.419 140.393C244.611 140.628 244.867 140.873 245.187 141.129C245.528 141.364 245.955 141.62 246.467 141.897C246.979 142.153 247.608 142.441 248.355 142.761C249.357 143.209 250.189 143.647 250.851 144.073C251.533 144.5 252.067 144.948 252.451 145.417C252.856 145.865 253.144 146.367 253.315 146.921C253.485 147.455 253.571 148.063 253.571 148.745C253.571 149.705 253.325 150.633 252.835 151.529C252.365 152.404 251.619 153.129 250.595 153.705C249.571 154.281 248.248 154.569 246.627 154.569ZM263.811 154.569C262.723 154.569 261.699 154.367 260.739 153.961C259.8 153.556 258.968 152.937 258.243 152.105C257.517 151.273 256.941 150.217 256.515 148.937C256.109 147.657 255.907 146.132 255.907 144.361C255.907 142.804 256.056 141.449 256.355 140.297C256.675 139.124 257.101 138.143 257.635 137.353C258.168 136.543 258.776 135.903 259.459 135.433C260.141 134.943 260.856 134.591 261.603 134.377C262.349 134.143 263.096 134.025 263.843 134.025C265.336 134.025 266.605 134.377 267.651 135.081C268.717 135.764 269.517 136.713 270.051 137.929L267.907 139.369L267.651 139.529L267.491 139.305C267.533 139.135 267.523 138.975 267.459 138.825C267.416 138.655 267.299 138.431 267.107 138.153C266.637 137.535 266.136 137.119 265.603 136.905C265.069 136.692 264.525 136.585 263.971 136.585C263.288 136.585 262.637 136.756 262.019 137.097C261.421 137.417 260.899 137.897 260.451 138.537C260.003 139.177 259.651 139.977 259.395 140.937C259.139 141.876 259.011 142.964 259.011 144.201C259.011 145.396 259.128 146.473 259.363 147.433C259.619 148.372 259.96 149.183 260.387 149.865C260.835 150.527 261.347 151.039 261.923 151.401C262.52 151.743 263.16 151.913 263.843 151.913C264.376 151.913 264.867 151.839 265.315 151.689C265.763 151.54 266.179 151.295 266.563 150.953C266.947 150.591 267.288 150.164 267.587 149.673L269.827 151.241C269.123 152.415 268.28 153.268 267.299 153.801C266.317 154.313 265.155 154.569 263.811 154.569ZM273.187 154.217V151.625H277.091V136.873H273.379V134.281H284.035V136.873H280.131V151.657H284.227V154.217H273.187ZM288.547 154.217V134.249H301.251V136.873H291.587V142.505H299.555V145.161H291.587V151.593H301.187V154.217H288.547ZM304.131 134.281H307.363L314.691 147.977L314.563 134.281H317.411H317.731V134.569C317.603 134.697 317.517 134.836 317.475 134.985C317.453 135.135 317.443 135.391 317.443 135.753V154.217H314.627L307.011 139.689V154.217H304.131V134.281ZM327.811 154.569C326.723 154.569 325.699 154.367 324.739 153.961C323.8 153.556 322.968 152.937 322.243 152.105C321.517 151.273 320.941 150.217 320.515 148.937C320.109 147.657 319.907 146.132 319.907 144.361C319.907 142.804 320.056 141.449 320.355 140.297C320.675 139.124 321.101 138.143 321.635 137.353C322.168 136.543 322.776 135.903 323.459 135.433C324.141 134.943 324.856 134.591 325.603 134.377C326.349 134.143 327.096 134.025 327.843 134.025C329.336 134.025 330.605 134.377 331.651 135.081C332.717 135.764 333.517 136.713 334.051 137.929L331.907 139.369L331.651 139.529L331.491 139.305C331.533 139.135 331.523 138.975 331.459 138.825C331.416 138.655 331.299 138.431 331.107 138.153C330.637 137.535 330.136 137.119 329.603 136.905C329.069 136.692 328.525 136.585 327.971 136.585C327.288 136.585 326.637 136.756 326.019 137.097C325.421 137.417 324.899 137.897 324.451 138.537C324.003 139.177 323.651 139.977 323.395 140.937C323.139 141.876 323.011 142.964 323.011 144.201C323.011 145.396 323.128 146.473 323.363 147.433C323.619 148.372 323.96 149.183 324.387 149.865C324.835 150.527 325.347 151.039 325.923 151.401C326.52 151.743 327.16 151.913 327.843 151.913C328.376 151.913 328.867 151.839 329.315 151.689C329.763 151.54 330.179 151.295 330.563 150.953C330.947 150.591 331.288 150.164 331.587 149.673L333.827 151.241C333.123 152.415 332.28 153.268 331.299 153.801C330.317 154.313 329.155 154.569 327.811 154.569ZM336.547 154.217V134.249H349.251V136.873H339.587V142.505H347.555V145.161H339.587V151.593H349.187V154.217H336.547ZM374.627 154.569C373.304 154.569 372.077 154.367 370.947 153.961C369.837 153.556 368.888 152.948 368.099 152.137L369.667 149.481L369.827 149.193L370.083 149.353C370.125 149.503 370.179 149.663 370.243 149.833C370.307 150.004 370.467 150.217 370.723 150.473C371.256 150.879 371.864 151.22 372.547 151.497C373.229 151.753 373.976 151.881 374.787 151.881C375.341 151.881 375.832 151.817 376.259 151.689C376.707 151.54 377.091 151.348 377.411 151.113C377.752 150.857 378.008 150.559 378.179 150.217C378.349 149.855 378.435 149.46 378.435 149.033C378.435 148.735 378.403 148.457 378.339 148.201C378.275 147.924 378.157 147.679 377.987 147.465C377.816 147.231 377.571 146.996 377.251 146.761C376.952 146.527 376.557 146.281 376.067 146.025C375.576 145.748 374.989 145.46 374.307 145.161C372.92 144.564 371.821 143.967 371.011 143.369C370.221 142.751 369.656 142.089 369.315 141.385C368.973 140.66 368.803 139.871 368.803 139.017C368.803 138.036 369.069 137.172 369.603 136.425C370.136 135.657 370.872 135.06 371.811 134.633C372.771 134.185 373.859 133.961 375.075 133.961C375.885 133.961 376.643 134.068 377.347 134.281C378.051 134.473 378.712 134.761 379.331 135.145C379.949 135.508 380.504 135.967 380.995 136.521L379.139 138.697L378.947 138.953L378.723 138.761C378.701 138.591 378.659 138.42 378.595 138.249C378.552 138.079 378.413 137.865 378.179 137.609C377.731 137.204 377.251 136.927 376.739 136.777C376.248 136.628 375.661 136.553 374.979 136.553C374.531 136.553 374.115 136.617 373.731 136.745C373.368 136.852 373.048 137.023 372.771 137.257C372.515 137.471 372.312 137.716 372.163 137.993C372.035 138.271 371.971 138.569 371.971 138.889C371.971 139.188 372.003 139.455 372.067 139.689C372.131 139.924 372.248 140.159 372.419 140.393C372.611 140.628 372.867 140.873 373.187 141.129C373.528 141.364 373.955 141.62 374.467 141.897C374.979 142.153 375.608 142.441 376.355 142.761C377.357 143.209 378.189 143.647 378.851 144.073C379.533 144.5 380.067 144.948 380.451 145.417C380.856 145.865 381.144 146.367 381.315 146.921C381.485 147.455 381.571 148.063 381.571 148.745C381.571 149.705 381.325 150.633 380.835 151.529C380.365 152.404 379.619 153.129 378.595 153.705C377.571 154.281 376.248 154.569 374.627 154.569ZM389.091 154.217V136.969H383.651V134.249H397.891V136.969H392.195V154.217H389.091ZM406.819 154.601C404.664 154.601 403.011 153.961 401.859 152.681C400.707 151.38 400.131 149.577 400.131 147.273V134.281H403.235H403.555V134.569C403.427 134.697 403.341 134.836 403.299 134.985C403.277 135.135 403.267 135.391 403.267 135.753V147.305C403.267 148.756 403.523 149.908 404.035 150.761C404.568 151.615 405.507 152.041 406.851 152.041C408.216 152.041 409.165 151.615 409.699 150.761C410.232 149.908 410.499 148.724 410.499 147.209V134.281H413.603V147.177C413.603 148.884 413.315 150.281 412.739 151.369C412.163 152.457 411.363 153.268 410.339 153.801C409.336 154.335 408.163 154.601 406.819 154.601ZM416.291 154.249V134.281H421.251C422.424 134.281 423.405 134.388 424.195 134.601C425.005 134.815 425.688 135.124 426.243 135.529C426.819 135.935 427.32 136.436 427.747 137.033C428.195 137.631 428.568 138.303 428.867 139.049C429.187 139.796 429.421 140.617 429.571 141.513C429.72 142.388 429.795 143.337 429.795 144.361C429.773 145.897 429.581 147.273 429.219 148.489C428.877 149.705 428.344 150.74 427.619 151.593C426.915 152.447 426.008 153.108 424.899 153.577C423.789 154.025 422.445 154.249 420.867 154.249H416.291ZM419.331 151.753H420.803C422.232 151.753 423.373 151.465 424.227 150.889C425.101 150.292 425.731 149.449 426.115 148.361C426.52 147.252 426.723 145.951 426.723 144.457C426.723 142.879 426.541 141.524 426.179 140.393C425.816 139.263 425.229 138.388 424.419 137.769C423.629 137.129 422.531 136.809 421.123 136.809H419.331V151.753ZM432.547 154.217V134.249H445.251V136.873H435.587V142.505H443.555V145.161H435.587V151.593H445.187V154.217H432.547ZM448.131 134.281H451.363L458.691 147.977L458.563 134.281H461.411H461.731V134.569C461.603 134.697 461.517 134.836 461.475 134.985C461.453 135.135 461.443 135.391 461.443 135.753V154.217H458.627L451.011 139.689V154.217H448.131V134.281ZM469.091 154.217V136.969H463.651V134.249H477.891V136.969H472.195V154.217H469.091ZM507.811 154.633L506.147 152.137C505.72 152.628 505.24 153.065 504.707 153.449C504.173 153.812 503.597 154.089 502.979 154.281C502.36 154.473 501.709 154.569 501.027 154.569C499.981 154.569 499.064 154.345 498.275 153.897C497.507 153.449 496.909 152.852 496.483 152.105C496.056 151.337 495.843 150.484 495.843 149.545C495.843 148.884 495.917 148.255 496.067 147.657C496.237 147.06 496.483 146.495 496.803 145.961C497.123 145.428 497.517 144.927 497.987 144.457C498.456 143.988 498.989 143.572 499.587 143.209C498.883 142.356 498.36 141.535 498.019 140.745C497.677 139.935 497.507 139.135 497.507 138.345C497.507 137.727 497.624 137.161 497.859 136.649C498.115 136.116 498.456 135.657 498.883 135.273C499.331 134.889 499.832 134.591 500.387 134.377C500.963 134.143 501.56 134.025 502.179 134.025C503.075 134.025 503.853 134.239 504.515 134.665C505.176 135.071 505.688 135.604 506.051 136.265C506.435 136.905 506.627 137.599 506.627 138.345C506.627 138.943 506.541 139.519 506.371 140.073C506.2 140.607 505.965 141.108 505.667 141.577C505.389 142.025 505.048 142.441 504.643 142.825C504.259 143.209 503.832 143.551 503.363 143.849L506.467 148.169C506.68 147.935 506.861 147.7 507.011 147.465C507.16 147.231 507.288 146.996 507.395 146.761C507.501 146.527 507.587 146.292 507.651 146.057C507.715 145.823 507.747 145.588 507.747 145.353C507.747 145.268 507.757 145.193 507.779 145.129C507.8 145.044 507.853 144.959 507.939 144.873L510.339 146.537C510.104 146.985 509.859 147.423 509.603 147.849C509.368 148.276 509.123 148.681 508.867 149.065C508.611 149.449 508.344 149.823 508.067 150.185L510.019 152.745L507.811 154.633ZM501.315 151.977C501.741 151.977 502.136 151.913 502.499 151.785C502.883 151.636 503.256 151.433 503.619 151.177C503.981 150.9 504.312 150.58 504.611 150.217L501.091 145.289C500.728 145.524 500.408 145.801 500.131 146.121C499.875 146.42 499.651 146.74 499.459 147.081C499.267 147.401 499.117 147.743 499.011 148.105C498.925 148.468 498.883 148.841 498.883 149.225C498.883 149.631 498.936 150.004 499.043 150.345C499.171 150.665 499.341 150.953 499.555 151.209C499.768 151.465 500.024 151.657 500.323 151.785C500.621 151.913 500.952 151.977 501.315 151.977ZM501.891 141.897C502.211 141.705 502.499 141.492 502.755 141.257C503.011 141.001 503.224 140.724 503.395 140.425C503.587 140.127 503.725 139.817 503.811 139.497C503.896 139.156 503.939 138.825 503.939 138.505C503.939 137.951 503.779 137.481 503.459 137.097C503.139 136.692 502.723 136.489 502.211 136.489C501.848 136.489 501.517 136.575 501.219 136.745C500.941 136.916 500.717 137.151 500.547 137.449C500.397 137.748 500.323 138.068 500.323 138.409C500.323 138.729 500.376 139.071 500.483 139.433C500.589 139.796 500.76 140.18 500.995 140.585C501.229 140.991 501.528 141.428 501.891 141.897ZM321.987 204.249L319.203 189.401H321.923L323.843 200.121L326.115 190.969H327.843L330.531 200.057C330.744 198.479 330.925 197.167 331.075 196.121C331.224 195.055 331.331 194.169 331.395 193.465C331.459 192.74 331.501 192.132 331.523 191.641C331.544 191.129 331.555 190.628 331.555 190.137V189.401H334.339C334.189 191.001 333.997 192.644 333.763 194.329C333.528 196.015 333.261 197.7 332.963 199.385C332.664 201.049 332.355 202.671 332.035 204.249H329.219L326.947 195.705L324.803 204.249H321.987ZM343.491 204.569C342.424 204.569 341.443 204.399 340.547 204.057C339.651 203.716 338.872 203.225 338.211 202.585C337.571 201.924 337.069 201.113 336.707 200.153C336.344 199.193 336.163 198.105 336.163 196.889C336.163 195.652 336.344 194.553 336.707 193.593C337.069 192.612 337.56 191.791 338.179 191.129C338.819 190.468 339.555 189.956 340.387 189.593C341.24 189.231 342.147 189.049 343.107 189.049C343.939 189.049 344.728 189.199 345.475 189.497C346.243 189.796 346.904 190.244 347.459 190.841C348.035 191.417 348.483 192.153 348.803 193.049C349.144 193.945 349.315 194.991 349.315 196.185C349.315 196.399 349.315 196.644 349.315 196.921C349.315 197.177 349.304 197.401 349.283 197.593H339.235C339.277 198.361 339.427 199.033 339.683 199.609C339.939 200.164 340.259 200.623 340.643 200.985C341.048 201.348 341.507 201.615 342.019 201.785C342.531 201.956 343.064 202.041 343.619 202.041C344.109 202.041 344.557 201.999 344.963 201.913C345.389 201.807 345.795 201.647 346.179 201.433C346.563 201.22 346.915 200.932 347.235 200.569L348.899 202.201C348.451 202.735 347.949 203.183 347.395 203.545C346.84 203.887 346.232 204.143 345.571 204.313C344.931 204.484 344.237 204.569 343.491 204.569ZM339.299 195.193H346.211C346.211 194.596 346.136 194.073 345.987 193.625C345.837 193.177 345.613 192.793 345.315 192.473C345.037 192.153 344.696 191.919 344.291 191.769C343.885 191.599 343.437 191.513 342.947 191.513C342.477 191.513 342.04 191.588 341.635 191.737C341.251 191.887 340.899 192.111 340.579 192.409C340.259 192.708 339.981 193.092 339.747 193.561C339.533 194.009 339.384 194.553 339.299 195.193ZM359.587 204.569C359.053 204.569 358.531 204.484 358.019 204.313C357.528 204.164 357.059 203.94 356.611 203.641C356.184 203.321 355.8 202.937 355.459 202.489L354.787 204.217H352.483V182.809H355.683H355.971V183.097C355.864 183.225 355.789 183.364 355.747 183.513C355.725 183.663 355.715 183.919 355.715 184.281V191.289C355.928 190.948 356.184 190.649 356.483 190.393C356.781 190.116 357.101 189.881 357.443 189.689C357.805 189.476 358.179 189.316 358.563 189.209C358.968 189.103 359.363 189.049 359.747 189.049C360.643 189.071 361.453 189.241 362.179 189.561C362.925 189.86 363.565 190.329 364.099 190.969C364.632 191.588 365.037 192.367 365.315 193.305C365.613 194.244 365.763 195.343 365.763 196.601C365.763 197.945 365.592 199.119 365.251 200.121C364.931 201.124 364.483 201.956 363.907 202.617C363.331 203.279 362.669 203.769 361.923 204.089C361.176 204.409 360.397 204.569 359.587 204.569ZM359.043 202.009C359.512 202.009 359.949 201.924 360.355 201.753C360.781 201.583 361.155 201.295 361.475 200.889C361.816 200.484 362.083 199.951 362.275 199.289C362.467 198.628 362.563 197.828 362.563 196.889C362.563 196.015 362.477 195.247 362.307 194.585C362.157 193.924 361.933 193.369 361.635 192.921C361.336 192.452 360.963 192.111 360.515 191.897C360.088 191.663 359.619 191.545 359.107 191.545C358.403 191.545 357.795 191.759 357.283 192.185C356.792 192.612 356.408 193.22 356.131 194.009C355.853 194.777 355.715 195.695 355.715 196.761C355.715 197.593 355.779 198.34 355.907 199.001C356.035 199.641 356.227 200.185 356.483 200.633C356.76 201.081 357.101 201.423 357.507 201.657C357.933 201.892 358.445 202.009 359.043 202.009ZM384.291 204.249V184.281H389.251C390.424 184.281 391.405 184.388 392.195 184.601C393.005 184.815 393.688 185.124 394.243 185.529C394.819 185.935 395.32 186.436 395.747 187.033C396.195 187.631 396.568 188.303 396.867 189.049C397.187 189.796 397.421 190.617 397.571 191.513C397.72 192.388 397.795 193.337 397.795 194.361C397.773 195.897 397.581 197.273 397.219 198.489C396.877 199.705 396.344 200.74 395.619 201.593C394.915 202.447 394.008 203.108 392.899 203.577C391.789 204.025 390.445 204.249 388.867 204.249H384.291ZM387.331 201.753H388.803C390.232 201.753 391.373 201.465 392.227 200.889C393.101 200.292 393.731 199.449 394.115 198.361C394.52 197.252 394.723 195.951 394.723 194.457C394.723 192.879 394.541 191.524 394.179 190.393C393.816 189.263 393.229 188.388 392.419 187.769C391.629 187.129 390.531 186.809 389.123 186.809H387.331V201.753ZM407.491 204.569C406.424 204.569 405.443 204.399 404.547 204.057C403.651 203.716 402.872 203.225 402.211 202.585C401.571 201.924 401.069 201.113 400.707 200.153C400.344 199.193 400.163 198.105 400.163 196.889C400.163 195.652 400.344 194.553 400.707 193.593C401.069 192.612 401.56 191.791 402.179 191.129C402.819 190.468 403.555 189.956 404.387 189.593C405.24 189.231 406.147 189.049 407.107 189.049C407.939 189.049 408.728 189.199 409.475 189.497C410.243 189.796 410.904 190.244 411.459 190.841C412.035 191.417 412.483 192.153 412.803 193.049C413.144 193.945 413.315 194.991 413.315 196.185C413.315 196.399 413.315 196.644 413.315 196.921C413.315 197.177 413.304 197.401 413.283 197.593H403.235C403.277 198.361 403.427 199.033 403.683 199.609C403.939 200.164 404.259 200.623 404.643 200.985C405.048 201.348 405.507 201.615 406.019 201.785C406.531 201.956 407.064 202.041 407.619 202.041C408.109 202.041 408.557 201.999 408.963 201.913C409.389 201.807 409.795 201.647 410.179 201.433C410.563 201.22 410.915 200.932 411.235 200.569L412.899 202.201C412.451 202.735 411.949 203.183 411.395 203.545C410.84 203.887 410.232 204.143 409.571 204.313C408.931 204.484 408.237 204.569 407.491 204.569ZM403.299 195.193H410.211C410.211 194.596 410.136 194.073 409.987 193.625C409.837 193.177 409.613 192.793 409.315 192.473C409.037 192.153 408.696 191.919 408.291 191.769C407.885 191.599 407.437 191.513 406.947 191.513C406.477 191.513 406.04 191.588 405.635 191.737C405.251 191.887 404.899 192.111 404.579 192.409C404.259 192.708 403.981 193.092 403.747 193.561C403.533 194.009 403.384 194.553 403.299 195.193ZM421.507 204.217L415.875 189.401H419.171L423.267 200.537H422.787L424.995 195.321C425.421 194.233 425.773 193.199 426.051 192.217C426.328 191.236 426.509 190.297 426.595 189.401H429.571C429.443 190.34 429.197 191.343 428.835 192.409C428.493 193.455 428.088 194.543 427.619 195.673L424.035 204.217H421.507ZM439.491 204.569C438.424 204.569 437.443 204.399 436.547 204.057C435.651 203.716 434.872 203.225 434.211 202.585C433.571 201.924 433.069 201.113 432.707 200.153C432.344 199.193 432.163 198.105 432.163 196.889C432.163 195.652 432.344 194.553 432.707 193.593C433.069 192.612 433.56 191.791 434.179 191.129C434.819 190.468 435.555 189.956 436.387 189.593C437.24 189.231 438.147 189.049 439.107 189.049C439.939 189.049 440.728 189.199 441.475 189.497C442.243 189.796 442.904 190.244 443.459 190.841C444.035 191.417 444.483 192.153 444.803 193.049C445.144 193.945 445.315 194.991 445.315 196.185C445.315 196.399 445.315 196.644 445.315 196.921C445.315 197.177 445.304 197.401 445.283 197.593H435.235C435.277 198.361 435.427 199.033 435.683 199.609C435.939 200.164 436.259 200.623 436.643 200.985C437.048 201.348 437.507 201.615 438.019 201.785C438.531 201.956 439.064 202.041 439.619 202.041C440.109 202.041 440.557 201.999 440.963 201.913C441.389 201.807 441.795 201.647 442.179 201.433C442.563 201.22 442.915 200.932 443.235 200.569L444.899 202.201C444.451 202.735 443.949 203.183 443.395 203.545C442.84 203.887 442.232 204.143 441.571 204.313C440.931 204.484 440.237 204.569 439.491 204.569ZM435.299 195.193H442.211C442.211 194.596 442.136 194.073 441.987 193.625C441.837 193.177 441.613 192.793 441.315 192.473C441.037 192.153 440.696 191.919 440.291 191.769C439.885 191.599 439.437 191.513 438.947 191.513C438.477 191.513 438.04 191.588 437.635 191.737C437.251 191.887 436.899 192.111 436.579 192.409C436.259 192.708 435.981 193.092 435.747 193.561C435.533 194.009 435.384 194.553 435.299 195.193ZM448.995 204.217V201.689H453.219V185.337H449.187V182.809H456.451V201.689H460.643V204.217H448.995ZM470.819 204.537C469.475 204.537 468.28 204.217 467.235 203.577C466.189 202.916 465.357 202.009 464.739 200.857C464.12 199.684 463.811 198.34 463.811 196.825C463.811 195.332 464.12 194.009 464.739 192.857C465.357 191.684 466.189 190.767 467.235 190.105C468.28 189.423 469.475 189.081 470.819 189.081C472.141 189.081 473.325 189.423 474.371 190.105C475.437 190.767 476.28 191.684 476.899 192.857C477.517 194.009 477.827 195.332 477.827 196.825C477.827 198.319 477.517 199.652 476.899 200.825C476.28 201.977 475.437 202.884 474.371 203.545C473.325 204.207 472.141 204.537 470.819 204.537ZM470.819 201.945C471.544 201.945 472.184 201.732 472.739 201.305C473.315 200.857 473.763 200.249 474.083 199.481C474.403 198.713 474.563 197.817 474.563 196.793C474.563 195.748 474.403 194.841 474.083 194.073C473.763 193.305 473.315 192.708 472.739 192.281C472.184 191.855 471.544 191.641 470.819 191.641C470.093 191.641 469.443 191.855 468.867 192.281C468.312 192.708 467.875 193.305 467.555 194.073C467.235 194.841 467.075 195.748 467.075 196.793C467.075 197.817 467.235 198.713 467.555 199.481C467.875 200.249 468.312 200.857 468.867 201.305C469.443 201.732 470.093 201.945 470.819 201.945ZM480.483 209.561V189.401H483.651V191.769C483.928 191.129 484.28 190.617 484.707 190.233C485.155 189.828 485.645 189.54 486.179 189.369C486.712 189.177 487.288 189.081 487.907 189.081C488.717 189.081 489.475 189.252 490.179 189.593C490.904 189.913 491.544 190.393 492.099 191.033C492.653 191.673 493.091 192.473 493.411 193.433C493.731 194.393 493.891 195.513 493.891 196.793C493.891 198.095 493.72 199.236 493.379 200.217C493.037 201.199 492.579 202.02 492.003 202.681C491.448 203.321 490.808 203.801 490.083 204.121C489.357 204.441 488.611 204.601 487.843 204.601C487.309 204.601 486.776 204.527 486.243 204.377C485.731 204.249 485.261 204.047 484.835 203.769C484.408 203.471 484.035 203.129 483.715 202.745V209.561H480.483ZM487.043 202.041C487.533 202.041 487.992 201.956 488.419 201.785C488.845 201.593 489.229 201.305 489.571 200.921C489.912 200.516 490.179 199.972 490.371 199.289C490.563 198.585 490.659 197.732 490.659 196.729C490.659 195.663 490.52 194.756 490.243 194.009C489.987 193.263 489.603 192.687 489.091 192.281C488.6 191.876 488.003 191.663 487.299 191.641C486.765 191.62 486.275 191.716 485.827 191.929C485.379 192.121 484.995 192.441 484.675 192.889C484.355 193.316 484.109 193.892 483.939 194.617C483.789 195.321 483.715 196.164 483.715 197.145C483.715 197.807 483.757 198.404 483.843 198.937C483.949 199.449 484.099 199.908 484.291 200.313C484.483 200.697 484.707 201.017 484.963 201.273C485.24 201.529 485.549 201.721 485.891 201.849C486.253 201.977 486.637 202.041 487.043 202.041ZM503.491 204.569C502.424 204.569 501.443 204.399 500.547 204.057C499.651 203.716 498.872 203.225 498.211 202.585C497.571 201.924 497.069 201.113 496.707 200.153C496.344 199.193 496.163 198.105 496.163 196.889C496.163 195.652 496.344 194.553 496.707 193.593C497.069 192.612 497.56 191.791 498.179 191.129C498.819 190.468 499.555 189.956 500.387 189.593C501.24 189.231 502.147 189.049 503.107 189.049C503.939 189.049 504.728 189.199 505.475 189.497C506.243 189.796 506.904 190.244 507.459 190.841C508.035 191.417 508.483 192.153 508.803 193.049C509.144 193.945 509.315 194.991 509.315 196.185C509.315 196.399 509.315 196.644 509.315 196.921C509.315 197.177 509.304 197.401 509.283 197.593H499.235C499.277 198.361 499.427 199.033 499.683 199.609C499.939 200.164 500.259 200.623 500.643 200.985C501.048 201.348 501.507 201.615 502.019 201.785C502.531 201.956 503.064 202.041 503.619 202.041C504.109 202.041 504.557 201.999 504.963 201.913C505.389 201.807 505.795 201.647 506.179 201.433C506.563 201.22 506.915 200.932 507.235 200.569L508.899 202.201C508.451 202.735 507.949 203.183 507.395 203.545C506.84 203.887 506.232 204.143 505.571 204.313C504.931 204.484 504.237 204.569 503.491 204.569ZM499.299 195.193H506.211C506.211 194.596 506.136 194.073 505.987 193.625C505.837 193.177 505.613 192.793 505.315 192.473C505.037 192.153 504.696 191.919 504.291 191.769C503.885 191.599 503.437 191.513 502.947 191.513C502.477 191.513 502.04 191.588 501.635 191.737C501.251 191.887 500.899 192.111 500.579 192.409C500.259 192.708 499.981 193.092 499.747 193.561C499.533 194.009 499.384 194.553 499.299 195.193ZM513.987 189.401H517.283L517.219 193.625L516.835 193.273C516.941 192.633 517.144 192.057 517.443 191.545C517.741 191.012 518.104 190.564 518.531 190.201C518.979 189.839 519.469 189.561 520.003 189.369C520.536 189.156 521.091 189.049 521.667 189.049C522.477 189.049 523.213 189.188 523.875 189.465C524.536 189.743 525.133 190.159 525.667 190.713L524.323 193.337L524.195 193.625L523.939 193.497C523.875 193.327 523.811 193.156 523.747 192.985C523.683 192.815 523.523 192.612 523.267 192.377C522.947 192.164 522.627 192.004 522.307 191.897C522.008 191.791 521.656 191.737 521.251 191.737C520.739 191.737 520.237 191.833 519.747 192.025C519.277 192.196 518.851 192.473 518.467 192.857C518.083 193.241 517.773 193.732 517.539 194.329C517.325 194.905 517.219 195.609 517.219 196.441V204.249H513.987V189.401Z" fill="black"/>
<path d="M65.9868 204.217V174.313H84.6108V178.681H70.8348V185.929H82.0188V190.297H70.8348V204.217H65.9868ZM96.9948 204.793C96.0988 204.793 95.2508 204.665 94.4508 204.409C93.6508 204.185 92.9308 203.833 92.2908 203.353C91.6508 202.841 91.0908 202.201 90.6108 201.433C90.1628 200.665 89.8108 199.753 89.5548 198.697C89.2988 197.609 89.1708 196.377 89.1708 195.001V181.897H94.6428V195.001C94.6428 195.993 94.7228 196.841 94.8828 197.545C95.0428 198.217 95.2828 198.777 95.6028 199.225C95.9228 199.641 96.2908 199.945 96.7068 200.137C97.1548 200.329 97.6188 200.425 98.0988 200.425C98.7708 200.425 99.3788 200.313 99.9228 200.089C100.499 199.833 100.979 199.465 101.363 198.985C101.779 198.505 102.099 197.913 102.323 197.209C102.547 196.473 102.659 195.609 102.659 194.617V181.897H108.083V200.665C108.083 201.369 108.099 202.009 108.131 202.585C108.195 203.129 108.339 203.673 108.563 204.217H103.619C103.459 203.897 103.347 203.577 103.283 203.257C103.219 202.937 103.171 202.617 103.139 202.297C103.139 201.945 103.139 201.625 103.139 201.337C102.787 201.881 102.387 202.377 101.939 202.825C101.491 203.241 100.995 203.593 100.451 203.881C99.9388 204.169 99.3788 204.393 98.7708 204.553C98.1948 204.713 97.6028 204.793 96.9948 204.793ZM113.843 204.217V199.945H120.131V176.281H114.131V172.009H125.603V199.945H131.843V204.217H113.843ZM137.843 204.217V199.945H144.131V176.281H138.131V172.009H149.603V199.945H155.843V204.217H137.843ZM194.435 204.745C192.451 204.745 190.579 204.457 188.819 203.881C187.091 203.273 185.651 202.361 184.499 201.145L187.139 196.681L187.331 196.297L187.763 196.537C187.827 196.761 187.907 197.001 188.003 197.257C188.131 197.513 188.387 197.817 188.771 198.169C189.571 198.777 190.451 199.273 191.411 199.657C192.403 200.009 193.475 200.201 194.627 200.233C195.363 200.233 196.035 200.153 196.643 199.993C197.283 199.833 197.827 199.593 198.275 199.273C198.723 198.953 199.075 198.553 199.331 198.073C199.587 197.561 199.715 196.985 199.715 196.345C199.715 195.961 199.667 195.593 199.571 195.241C199.475 194.889 199.299 194.553 199.043 194.233C198.819 193.881 198.483 193.545 198.035 193.225C197.587 192.873 197.027 192.505 196.355 192.121C195.683 191.705 194.835 191.273 193.811 190.825C191.763 189.929 190.131 189.017 188.915 188.089C187.731 187.161 186.883 186.169 186.371 185.113C185.859 184.057 185.603 182.857 185.603 181.513C185.603 180.041 186.003 178.729 186.803 177.577C187.635 176.425 188.771 175.513 190.211 174.841C191.651 174.169 193.299 173.833 195.155 173.833C196.403 173.833 197.571 173.977 198.659 174.265C199.747 174.553 200.755 174.985 201.683 175.561C202.611 176.105 203.459 176.809 204.227 177.673L201.059 181.321L200.771 181.657L200.387 181.369C200.355 181.113 200.291 180.873 200.195 180.649C200.131 180.393 199.923 180.073 199.571 179.689C198.963 179.113 198.307 178.729 197.603 178.537C196.931 178.345 196.131 178.249 195.203 178.249C194.531 178.249 193.939 178.329 193.427 178.489C192.915 178.649 192.467 178.873 192.083 179.161C191.731 179.449 191.443 179.785 191.219 180.169C191.027 180.521 190.931 180.889 190.931 181.273C190.931 181.657 190.979 182.025 191.075 182.377C191.171 182.697 191.331 183.017 191.555 183.337C191.811 183.657 192.163 183.993 192.611 184.345C193.091 184.665 193.699 185.017 194.435 185.401C195.171 185.785 196.083 186.217 197.171 186.697C198.675 187.401 199.939 188.089 200.963 188.761C201.987 189.401 202.787 190.089 203.363 190.825C203.971 191.529 204.403 192.313 204.659 193.177C204.915 194.009 205.043 194.953 205.043 196.009C205.043 197.449 204.675 198.841 203.939 200.185C203.203 201.529 202.051 202.633 200.483 203.497C198.915 204.329 196.899 204.745 194.435 204.745ZM221.171 204.697C219.891 204.697 218.771 204.489 217.811 204.073C216.883 203.657 216.099 202.985 215.459 202.057C214.851 201.129 214.403 199.897 214.115 198.361C213.859 196.825 213.779 194.921 213.875 192.649L214.499 176.617L220.115 175.897L220.547 175.849L220.595 176.281C220.467 176.505 220.339 176.729 220.211 176.953C220.083 177.177 220.003 177.561 219.971 178.105L219.443 184.729L219.683 185.065L219.299 192.553C219.203 194.633 219.267 196.249 219.491 197.401C219.747 198.521 220.115 199.289 220.595 199.705C221.107 200.121 221.715 200.329 222.419 200.329C223.443 200.329 224.355 200.121 225.155 199.705C225.987 199.289 226.755 198.809 227.459 198.265L228.611 202.201C227.523 203.001 226.355 203.625 225.107 204.073C223.891 204.489 222.579 204.697 221.171 204.697ZM209.651 181.897H226.835L226.787 186.169H209.555L209.651 181.897ZM240.323 204.793C237.859 204.793 235.939 204.217 234.563 203.065C233.219 201.881 232.547 200.361 232.547 198.505C232.547 197.321 232.803 196.233 233.315 195.241C233.859 194.217 234.659 193.337 235.715 192.601C236.771 191.865 238.083 191.305 239.651 190.921C241.219 190.505 243.011 190.297 245.027 190.297C245.283 190.297 245.603 190.297 245.987 190.297C246.371 190.297 246.787 190.313 247.235 190.345C247.683 190.345 248.099 190.377 248.483 190.441L248.627 194.185C248.307 194.153 247.923 194.137 247.475 194.137C247.027 194.105 246.563 194.089 246.083 194.089C245.635 194.057 245.251 194.041 244.931 194.041C243.651 194.041 242.563 194.137 241.667 194.329C240.803 194.521 240.099 194.793 239.555 195.145C239.011 195.465 238.611 195.865 238.355 196.345C238.099 196.793 237.971 197.289 237.971 197.833C237.971 198.345 238.051 198.777 238.211 199.129C238.403 199.481 238.643 199.769 238.931 199.993C239.251 200.185 239.619 200.329 240.035 200.425C240.451 200.521 240.899 200.569 241.379 200.569C242.339 200.569 243.171 200.425 243.875 200.137C244.611 199.817 245.219 199.321 245.699 198.649C246.211 197.977 246.579 197.145 246.803 196.153C247.059 195.129 247.187 193.929 247.187 192.553C247.187 190.697 246.995 189.273 246.611 188.281C246.227 187.289 245.667 186.601 244.931 186.217C244.195 185.801 243.267 185.593 242.147 185.593C241.123 185.593 240.147 185.769 239.219 186.121C238.323 186.441 237.443 187.049 236.579 187.945L233.603 184.681C234.851 183.497 236.243 182.649 237.779 182.137C239.315 181.625 240.851 181.369 242.387 181.369C243.795 181.369 245.107 181.529 246.323 181.849C247.539 182.169 248.595 182.713 249.491 183.481C250.419 184.217 251.139 185.241 251.651 186.553C252.195 187.833 252.467 189.433 252.467 191.353V204.217H246.851V201.817C246.435 202.361 245.987 202.825 245.507 203.209C245.027 203.593 244.515 203.897 243.971 204.121C243.427 204.345 242.851 204.505 242.243 204.601C241.635 204.729 240.995 204.793 240.323 204.793ZM268.163 204.793C266.531 204.793 265.011 204.505 263.603 203.929C262.227 203.353 261.011 202.553 259.955 201.529C258.931 200.505 258.131 199.289 257.555 197.881C256.979 196.473 256.691 194.921 256.691 193.225C256.691 191.593 256.979 190.057 257.555 188.617C258.131 187.177 258.931 185.929 259.955 184.873C261.011 183.785 262.227 182.937 263.603 182.329C265.011 181.689 266.547 181.369 268.211 181.369C270.259 181.369 272.051 181.753 273.587 182.521C275.123 183.289 276.339 184.345 277.235 185.689L274.211 189.001L273.923 189.337L273.539 189.049C273.539 188.793 273.507 188.537 273.443 188.281C273.379 187.993 273.171 187.657 272.819 187.273C272.211 186.665 271.539 186.265 270.803 186.073C270.067 185.849 269.219 185.737 268.259 185.737C267.459 185.737 266.691 185.913 265.955 186.265C265.251 186.585 264.611 187.065 264.035 187.705C263.459 188.313 263.011 189.081 262.691 190.009C262.371 190.937 262.211 192.009 262.211 193.225C262.211 194.313 262.371 195.305 262.691 196.201C263.043 197.065 263.491 197.817 264.035 198.457C264.611 199.065 265.267 199.545 266.003 199.897C266.771 200.217 267.571 200.377 268.403 200.377C269.075 200.377 269.731 200.281 270.371 200.089C271.011 199.897 271.635 199.609 272.243 199.225C272.883 198.809 273.475 198.265 274.019 197.593L277.043 201.049C275.859 202.361 274.483 203.321 272.915 203.929C271.347 204.505 269.763 204.793 268.163 204.793ZM288.611 194.089L286.835 195.865V204.217H281.315V172.009H286.787H287.219V172.441C287.059 172.633 286.947 172.841 286.883 173.065C286.851 173.289 286.835 173.673 286.835 174.217V189.961L295.379 181.705C295.635 181.737 295.907 181.785 296.195 181.849C296.483 181.881 296.771 181.913 297.059 181.945C297.347 181.977 297.635 182.009 297.923 182.041C298.211 182.041 298.451 182.041 298.643 182.041H301.235L292.355 190.729L302.435 204.169L296.243 204.409L288.611 194.089Z" fill="#8967AA"/>
<path d="M123.044 65.1854C123.044 100.377 95.5934 128.872 61.7718 128.872C27.9502 128.872 0.5 100.377 0.5 65.1854C0.5 29.9939 27.9502 1.49866 61.7718 1.49866C95.5934 1.49866 123.044 29.9939 123.044 65.1854Z" fill="white" stroke="#2298BD"/>
<g clip-path="url(#clip0_231_7)">
<path d="M62.8556 37.0333C51.8739 37.0333 45.0104 42.7739 42.265 54.2551C46.3831 48.5145 51.1876 46.3618 56.6784 47.7969C59.8112 48.6157 62.0504 50.9919 64.5289 53.6222C68.5665 57.9069 73.2395 62.8659 83.4462 62.8659C94.4278 62.8659 101.291 57.1254 104.037 45.6442C99.9187 51.3848 95.1142 53.5375 89.6234 52.1023C86.4905 51.2835 84.2514 48.9074 81.7729 46.2771C77.7353 41.9924 73.0623 37.0333 62.8556 37.0333ZM42.265 62.8659C31.2833 62.8659 24.4198 68.6065 21.6744 80.0877C25.7925 74.3471 30.597 72.1944 36.0878 73.6295C39.2206 74.4484 41.4598 76.8245 43.9383 79.4548C47.9759 83.7395 52.6489 88.6986 62.8556 88.6986C73.8372 88.6986 80.7008 82.958 83.4462 71.4768C79.3281 77.2174 74.5236 79.3701 69.0328 77.935C65.8999 77.1162 63.6608 74.74 61.1823 72.1097C57.1447 67.825 52.4717 62.8659 42.265 62.8659Z" fill="url(#paint0_linear_231_7)"/>
</g>
<defs>
<linearGradient id="paint0_linear_231_7" x1="-564.014" y1="2583.1" x2="19803.3" y2="9340.09" gradientUnits="userSpaceOnUse">
<stop stop-color="#2298BD"/>
<stop offset="1" stop-color="#0ED7B5"/>
</linearGradient>
<clipPath id="clip0_231_7">
<rect width="82.3624" height="51.7998" fill="white" transform="translate(21.6744 37.0333)"/>
</clipPath>
</defs>
</svg>
